<?xml version="1.0" encoding="UTF-8" standalone="no"?>
<svg width="262px" height="210px" viewBox="0 0 262 210" version="1.1" xmlns="http://www.w3.org/2000/svg" xmlns:xlink="http://www.w3.org/1999/xlink">
    <!-- Generator: Sketch 41.2 (35397) - http://www.bohemiancoding.com/sketch -->
    <title>card</title>
    <desc>Created with Sketch.</desc>
    <defs>
        <rect id="path-1" x="0" y="0" width="186" height="134" rx="5"></rect>
        <filter x="-50%" y="-50%" width="200%" height="200%" filterUnits="objectBoundingBox" id="filter-2">
            <feOffset dx="0" dy="3" in="SourceAlpha" result="shadowOffsetOuter1"></feOffset>
            <feGaussianBlur stdDeviation="4" in="shadowOffsetOuter1" result="shadowBlurOuter1"></feGaussianBlur>
            <feColorMatrix values="0 0 0 0 0.28627451   0 0 0 0 0.541176471   0 0 0 0 0.996078431  0 0 0 0.16 0" type="matrix" in="shadowBlurOuter1" result="shadowMatrixOuter1"></feColorMatrix>
            <feOffset dx="0" dy="14" in="SourceAlpha" result="shadowOffsetOuter2"></feOffset>
            <feGaussianBlur stdDeviation="19" in="shadowOffsetOuter2" result="shadowBlurOuter2"></feGaussianBlur>
            <feColorMatrix values="0 0 0 0 0.28627451   0 0 0 0 0.541176471   0 0 0 0 0.996078431  0 0 0 0.08 0" type="matrix" in="shadowBlurOuter2" result="shadowMatrixOuter2"></feColorMatrix>
            <feMerge>
                <feMergeNode in="shadowMatrixOuter1"></feMergeNode>
                <feMergeNode in="shadowMatrixOuter2"></feMergeNode>
            </feMerge>
        </filter>
    </defs>
    <g id="Site" stroke="none" stroke-width="1" fill="none" fill-rule="evenodd">
        <g id="card" transform="translate(38.000000, 24.000000)">
            <g id="background">
                <use fill="black" fill-opacity="1" filter="url(#filter-2)" xlink:href="#path-1"></use>
                <use fill="#FFFFFF" fill-rule="evenodd" xlink:href="#path-1"></use>
            </g>
            <path d="M36.109375,23.3984375 C36.109375,22.4661412 36.072917,21.4088601 36,20.2265625 C37.0156301,20.2578127 38.7604043,20.2734375 41.234375,20.2734375 C43.697929,20.2734375 45.4348908,20.2578127 46.4453125,20.2265625 C46.3723955,21.4088601 46.3359375,22.4661412 46.3359375,23.3984375 C46.3359375,23.8880233 46.3515623,24.270832 46.3828125,24.546875 L46.015625,24.546875 C45.6666649,23.1458263 45.2148465,22.1367218 44.6601562,21.5195312 C44.105466,20.9023407 43.5078157,20.59375 42.8671875,20.59375 L42.8515625,20.59375 L42.8515625,29.75 C42.8515625,30.1979189 42.897135,30.5234365 42.9882812,30.7265625 C43.0794275,30.9296885 43.2447905,31.0651038 43.484375,31.1328125 C43.7239595,31.2005212 44.1041641,31.234375 44.625,31.234375 L44.625,31.5546875 C43.1249925,31.5234373 41.9557334,31.5078125 41.1171875,31.5078125 C40.3619754,31.5078125 39.2656322,31.5234373 37.828125,31.5546875 L37.828125,31.234375 C38.3489609,31.234375 38.7291655,31.2005212 38.96875,31.1328125 C39.2083345,31.0651038 39.3736975,30.9296885 39.4648438,30.7265625 C39.55599,30.5234365 39.6015625,30.1979189 39.6015625,29.75 L39.6015625,20.59375 L39.5859375,20.59375 C38.9348926,20.59375 38.3346382,20.8997365 37.7851562,21.5117188 C37.2356743,22.123701 36.7838559,23.1354096 36.4296875,24.546875 L36.0625,24.546875 C36.0937502,24.270832 36.109375,23.8880233 36.109375,23.3984375 Z M58.703125,31.5859375 C58.3177064,31.7161465 57.8697942,31.78125 57.359375,31.78125 C56.6249963,31.78125 56.0533875,31.6497409 55.6445312,31.3867188 C55.235675,31.1236966 54.9843755,30.6770865 54.890625,30.046875 L54.6484375,28.453125 C54.539062,27.7031212 54.3932301,27.1367207 54.2109375,26.7539062 C54.0286449,26.3710918 53.7500019,26.1796875 53.375,26.1796875 L52.6484375,26.1796875 L52.6484375,29.859375 C52.6484375,30.2604187 52.677083,30.5520824 52.734375,30.734375 C52.791667,30.9166676 52.8971346,31.0416663 53.0507812,31.109375 C53.2044279,31.1770837 53.4505191,31.2187499 53.7890625,31.234375 L53.7890625,31.5546875 C53.1640594,31.5234373 52.2734433,31.5078125 51.1171875,31.5078125 C49.8255144,31.5078125 48.875003,31.5234373 48.265625,31.5546875 L48.265625,31.234375 C48.6093767,31.2187499 48.8580721,31.1770837 49.0117188,31.109375 C49.1653654,31.0416663 49.269531,30.9166676 49.3242188,30.734375 C49.3789065,30.5520824 49.40625,30.2604187 49.40625,29.859375 L49.40625,21.921875 C49.40625,21.5208313 49.3776045,21.2291676 49.3203125,21.046875 C49.2630205,20.8645824 49.1575529,20.7395837 49.0039062,20.671875 C48.8502596,20.6041663 48.6041684,20.5625001 48.265625,20.546875 L48.265625,20.2265625 C48.875003,20.2578127 49.7942647,20.2734375 51.0234375,20.2734375 C51.4609397,20.2734375 51.947914,20.2682292 52.484375,20.2578125 C53.020836,20.2473958 53.390624,20.2421875 53.59375,20.2421875 C55.2187581,20.2421875 56.4283814,20.4700498 57.2226562,20.9257812 C58.0169311,21.3815127 58.4140625,22.0807245 58.4140625,23.0234375 C58.4140625,23.8255248 58.1145863,24.5091118 57.515625,25.0742188 C56.9166637,25.6393257 55.9114654,25.9895827 54.5,26.125 C55.5885471,26.1875003 56.4127576,26.3867171 56.9726562,26.7226562 C57.5325549,27.0585954 57.8749994,27.5546842 58,28.2109375 L58.3359375,29.875 C58.4140629,30.265627 58.5065099,30.5364576 58.6132812,30.6875 C58.7200526,30.8385424 58.8671866,30.9140625 59.0546875,30.9140625 C59.2473968,30.9140625 59.4114577,30.8437507 59.546875,30.703125 L59.7578125,30.9140625 C59.4401026,31.2317724 59.0885436,31.4557285 58.703125,31.5859375 Z M54.3007812,25.515625 C54.5898452,25.2864572 54.7877599,24.9791686 54.8945312,24.59375 C55.0013026,24.2083314 55.0546875,23.7447944 55.0546875,23.203125 C55.0546875,22.3281206 54.934897,21.6666689 54.6953125,21.21875 C54.455728,20.7708311 54.0625027,20.546875 53.515625,20.546875 C53.2708321,20.546875 53.0872402,20.584635 52.9648438,20.6601562 C52.8424473,20.7356775 52.7591148,20.8697907 52.7148438,21.0625 C52.6705727,21.2552093 52.6484375,21.5416648 52.6484375,21.921875 L52.6484375,25.859375 L53.0859375,25.859375 C53.6067734,25.859375 54.0117173,25.7447928 54.3007812,25.515625 Z M69.9609375,28.8671875 C69.9609375,29.9557346 69.9973955,30.851559 70.0703125,31.5546875 C69.3463505,31.5234373 68.1250086,31.5078125 66.40625,31.5078125 C63.9114459,31.5078125 62.044277,31.5234373 60.8046875,31.5546875 L60.8046875,31.234375 C61.1484392,31.2187499 61.3971346,31.1770837 61.5507812,31.109375 C61.7044279,31.0416663 61.8085935,30.9166676 61.8632812,30.734375 C61.917969,30.5520824 61.9453125,30.2604187 61.9453125,29.859375 L61.9453125,21.921875 C61.9453125,21.5208313 61.916667,21.2291676 61.859375,21.046875 C61.802083,20.8645824 61.6966154,20.7395837 61.5429688,20.671875 C61.3893221,20.6041663 61.1432309,20.5625001 60.8046875,20.546875 L60.8046875,20.2265625 C62.044277,20.2578127 63.9114459,20.2734375 66.40625,20.2734375 C67.9739662,20.2734375 69.0885384,20.2578127 69.75,20.2265625 C69.677083,21.2265675 69.640625,22.1223919 69.640625,22.9140625 C69.640625,23.4088566 69.6562498,23.7942695 69.6875,24.0703125 L69.3203125,24.0703125 C69.1328116,22.830723 68.7773464,21.9414089 68.2539062,21.4023438 C67.7304661,20.8632786 67.1041703,20.59375 66.375,20.59375 L66.1640625,20.59375 C65.8723944,20.59375 65.661459,20.6171873 65.53125,20.6640625 C65.401041,20.7109377 65.3111982,20.8033847 65.2617188,20.9414062 C65.2122393,21.0794278 65.1875,21.2994777 65.1875,21.6015625 L65.1875,25.6953125 L65.3515625,25.6953125 C65.7317727,25.6953125 66.0742172,25.5885427 66.3789062,25.375 C66.6835953,25.1614573 66.9348948,24.8932308 67.1328125,24.5703125 C67.3307302,24.2473942 67.4635413,23.9192725 67.53125,23.5859375 L67.8984375,23.5859375 C67.8567706,24.2109406 67.8359375,24.7291646 67.8359375,25.140625 L67.84375,25.859375 C67.84375,26.3177106 67.8776038,27.0755155 67.9453125,28.1328125 L67.578125,28.1328125 C67.5104163,27.7317688 67.3763031,27.3710954 67.1757812,27.0507812 C66.9752594,26.7304671 66.7187516,26.4778655 66.40625,26.2929688 C66.0937484,26.108072 65.7421895,26.015625 65.3515625,26.015625 L65.1875,26.015625 L65.1875,30.1796875 C65.1875,30.4869807 65.2122393,30.7083327 65.2617188,30.84375 C65.3111982,30.9791673 65.401041,31.0703123 65.53125,31.1171875 C65.661459,31.1640627 65.8723944,31.1875 66.1640625,31.1875 L66.6953125,31.1875 C67.0807311,31.1875 67.467446,31.0651054 67.8554688,30.8203125 C68.2434915,30.5755196 68.5976546,30.1705757 68.9179688,29.6054688 C69.2382829,29.0403618 69.4791659,28.304692 69.640625,27.3984375 L70.0078125,27.3984375 C69.9765623,27.7786477 69.9609375,28.2682262 69.9609375,28.8671875 Z M82.4609375,30.9726562 C82.627605,31.1367196 82.7916659,31.2239583 82.953125,31.234375 L82.953125,31.5546875 C82.1822878,31.5234373 81.2109434,31.5078125 80.0390625,31.5078125 C78.8203064,31.5078125 77.924482,31.5234373 77.3515625,31.5546875 L77.3515625,31.234375 C77.7526062,31.2187499 78.0403637,31.1692713 78.2148438,31.0859375 C78.3893238,31.0026037 78.4765625,30.8567719 78.4765625,30.6484375 C78.4765625,30.4869784 78.411459,30.2343767 78.28125,29.890625 L77.328125,27.265625 L74.1015625,27.265625 L73.828125,27.984375 C73.4843733,28.8802128 73.3125,29.5755184 73.3125,30.0703125 C73.3125,30.5078147 73.4335925,30.8072909 73.6757812,30.96875 C73.91797,31.1302091 74.2786434,31.2187499 74.7578125,31.234375 L74.7578125,31.5546875 C73.9609335,31.5234373 73.2630238,31.5078125 72.6640625,31.5078125 C72.1588516,31.5078125 71.7473974,31.5234373 71.4296875,31.5546875 L71.4296875,31.234375 C71.6901055,31.1927081 71.9388009,31.0286473 72.1757812,30.7421875 C72.4127616,30.4557277 72.6536446,29.9947948 72.8984375,29.359375 L76.453125,20.2265625 C76.6822928,20.2473959 76.96354,20.2578125 77.296875,20.2578125 C77.63021,20.2578125 77.908853,20.2473959 78.1328125,20.2265625 L82.0078125,30.2109375 C82.1432298,30.5546892 82.29427,30.8085929 82.4609375,30.9726562 Z M75.765625,22.9453125 L74.2265625,26.9453125 L77.21875,26.9453125 L75.765625,22.9453125 Z M93.8320312,30.8320312 C93.7721351,30.683593 93.6848964,30.609375 93.5703125,30.609375 C93.4869788,30.609375 93.3776048,30.6536454 93.2421875,30.7421875 C92.9244776,30.966147 92.6315118,31.1497389 92.3632812,31.2929688 C92.0950507,31.4361986 91.7890642,31.553385 91.4453125,31.6445312 C91.1015608,31.7356775 90.7135438,31.78125 90.28125,31.78125 C89.0729106,31.78125 88.0156295,31.5520856 87.109375,31.09375 C86.2031205,30.6354144 85.5000025,29.9700564 85,29.0976562 C84.4999975,28.2252561 84.25,27.187506 84.25,25.984375 C84.25,24.8072858 84.5065079,23.7656295 85.0195312,22.859375 C85.5325546,21.9531205 86.2460892,21.2500025 87.1601562,20.75 C88.0742233,20.2499975 89.1197858,20 90.296875,20 C90.9322948,20 91.4752582,20.0911449 91.9257812,20.2734375 C92.3763043,20.4557301 92.815102,20.7109359 93.2421875,21.0390625 C93.3619798,21.132813 93.4661454,21.1796875 93.5546875,21.1796875 C93.7734386,21.1796875 93.9088539,20.8619823 93.9609375,20.2265625 L94.328125,20.2265625 C94.2864581,20.9817746 94.265625,22.3150946 94.265625,24.2265625 L93.8984375,24.2265625 C93.8463539,23.6588513 93.7721359,23.1835957 93.6757812,22.8007812 C93.5794266,22.4179668 93.4322927,22.0742203 93.234375,21.7695312 C93.0364573,21.4648422 92.7656267,21.200522 92.421875,20.9765625 C91.9322892,20.6588526 91.4375025,20.5 90.9375,20.5 C90.1718712,20.5 89.5664085,20.7695286 89.1210938,21.3085938 C88.675779,21.8476589 88.3658863,22.5208293 88.1914062,23.328125 C88.0169262,24.1354207 87.9296875,24.9999954 87.9296875,25.921875 C87.9296875,26.8437546 88.0169262,27.7083293 88.1914062,28.515625 C88.3658863,29.3229207 88.675779,29.9960911 89.1210938,30.5351562 C89.5664085,31.0742214 90.1718712,31.34375 90.9375,31.34375 C91.4375025,31.34375 91.9322892,31.1848974 92.421875,30.8671875 C92.7656267,30.6536448 93.0364573,30.3906266 93.234375,30.078125 C93.4322927,29.7656234 93.5794266,29.3997417 93.6757812,28.9804688 C93.7721359,28.5611958 93.8463539,28.0338573 93.8984375,27.3984375 L94.265625,27.3984375 C94.265625,29.3828224 94.2864581,30.7682252 94.328125,31.5546875 L93.9609375,31.5546875 C93.9348957,31.2213525 93.8919274,30.9804695 93.8320312,30.8320312 Z M108.210938,20.671875 C108.059895,20.7395837 107.957032,20.8645824 107.902344,21.046875 C107.847656,21.2291676 107.820312,21.5208313 107.820312,21.921875 L107.820312,29.859375 C107.820312,30.2604187 107.848958,30.5520824 107.90625,30.734375 C107.963542,30.9166676 108.067708,31.0416663 108.21875,31.109375 C108.369792,31.1770837 108.614582,31.2187499 108.953125,31.234375 L108.953125,31.5546875 C108.385414,31.5234373 107.489589,31.5078125 106.265625,31.5078125 C105.036452,31.5078125 104.093753,31.5234373 103.4375,31.5546875 L103.4375,31.234375 C103.781252,31.2187499 104.028645,31.1770837 104.179688,31.109375 C104.33073,31.0416663 104.433593,30.9179696 104.488281,30.7382812 C104.542969,30.5585929 104.570312,30.265627 104.570312,29.859375 L104.570312,26.015625 L100.96875,26.015625 L100.96875,29.859375 C100.96875,30.2604187 100.997396,30.5520824 101.054688,30.734375 C101.111979,30.9166676 101.217447,31.0416663 101.371094,31.109375 C101.52474,31.1770837 101.770832,31.2187499 102.109375,31.234375 L102.109375,31.5546875 C101.484372,31.5234373 100.593756,31.5078125 99.4375,31.5078125 C98.1458269,31.5078125 97.1953155,31.5234373 96.5859375,31.5546875 L96.5859375,31.234375 C96.9296892,31.2187499 97.1783846,31.1770837 97.3320312,31.109375 C97.4856779,31.0416663 97.5898435,30.9166676 97.6445312,30.734375 C97.699219,30.5520824 97.7265625,30.2604187 97.7265625,29.859375 L97.7265625,21.921875 C97.7265625,21.5208313 97.697917,21.2291676 97.640625,21.046875 C97.583333,20.8645824 97.4778654,20.7395837 97.3242188,20.671875 C97.1705721,20.6041663 96.9244809,20.5625001 96.5859375,20.546875 L96.5859375,20.2265625 C97.1953155,20.2578127 98.1458269,20.2734375 99.4375,20.2734375 C100.593756,20.2734375 101.484372,20.2578127 102.109375,20.2265625 L102.109375,20.546875 C101.765623,20.5625001 101.516928,20.6041663 101.363281,20.671875 C101.209635,20.7395837 101.105469,20.8645824 101.050781,21.046875 C100.996093,21.2291676 100.96875,21.5208313 100.96875,21.921875 L100.96875,25.6953125 L104.570312,25.6953125 L104.570312,21.921875 C104.570312,21.5208313 104.542969,21.2291676 104.488281,21.046875 C104.433593,20.8645824 104.329428,20.7395837 104.175781,20.671875 C104.022135,20.6041663 103.776043,20.5625001 103.4375,20.546875 L103.4375,20.2265625 C104.093753,20.2578127 105.036452,20.2734375 106.265625,20.2734375 C107.484381,20.2734375 108.380205,20.2578127 108.953125,20.2265625 L108.953125,20.546875 C108.609373,20.5625001 108.36198,20.6041663 108.210938,20.671875 Z M120.007812,28.8671875 C120.007812,29.9557346 120.04427,30.851559 120.117188,31.5546875 C119.393226,31.5234373 118.171884,31.5078125 116.453125,31.5078125 C113.958321,31.5078125 112.091152,31.5234373 110.851562,31.5546875 L110.851562,31.234375 C111.195314,31.2187499 111.44401,31.1770837 111.597656,31.109375 C111.751303,31.0416663 111.855468,30.9166676 111.910156,30.734375 C111.964844,30.5520824 111.992188,30.2604187 111.992188,29.859375 L111.992188,21.921875 C111.992188,21.5208313 111.963542,21.2291676 111.90625,21.046875 C111.848958,20.8645824 111.74349,20.7395837 111.589844,20.671875 C111.436197,20.6041663 111.190106,20.5625001 110.851562,20.546875 L110.851562,20.2265625 C112.091152,20.2578127 113.958321,20.2734375 116.453125,20.2734375 C118.020841,20.2734375 119.135413,20.2578127 119.796875,20.2265625 C119.723958,21.2265675 119.6875,22.1223919 119.6875,22.9140625 C119.6875,23.4088566 119.703125,23.7942695 119.734375,24.0703125 L119.367188,24.0703125 C119.179687,22.830723 118.824221,21.9414089 118.300781,21.4023438 C117.777341,20.8632786 117.151045,20.59375 116.421875,20.59375 L116.210938,20.59375 C115.919269,20.59375 115.708334,20.6171873 115.578125,20.6640625 C115.447916,20.7109377 115.358073,20.8033847 115.308594,20.9414062 C115.259114,21.0794278 115.234375,21.2994777 115.234375,21.6015625 L115.234375,25.6953125 L115.398438,25.6953125 C115.778648,25.6953125 116.121092,25.5885427 116.425781,25.375 C116.73047,25.1614573 116.98177,24.8932308 117.179688,24.5703125 C117.377605,24.2473942 117.510416,23.9192725 117.578125,23.5859375 L117.945312,23.5859375 C117.903646,24.2109406 117.882812,24.7291646 117.882812,25.140625 L117.890625,25.859375 C117.890625,26.3177106 117.924479,27.0755155 117.992188,28.1328125 L117.625,28.1328125 C117.557291,27.7317688 117.423178,27.3710954 117.222656,27.0507812 C117.022134,26.7304671 116.765627,26.4778655 116.453125,26.2929688 C116.140623,26.108072 115.789064,26.015625 115.398438,26.015625 L115.234375,26.015625 L115.234375,30.1796875 C115.234375,30.4869807 115.259114,30.7083327 115.308594,30.84375 C115.358073,30.9791673 115.447916,31.0703123 115.578125,31.1171875 C115.708334,31.1640627 115.919269,31.1875 116.210938,31.1875 L116.742188,31.1875 C117.127606,31.1875 117.514321,31.0651054 117.902344,30.8203125 C118.290367,30.5755196 118.64453,30.1705757 118.964844,29.6054688 C119.285158,29.0403618 119.526041,28.304692 119.6875,27.3984375 L120.054688,27.3984375 C120.023437,27.7786477 120.007812,28.2682262 120.007812,28.8671875 Z M132.6875,31.5859375 C132.302081,31.7161465 131.854169,31.78125 131.34375,31.78125 C130.609371,31.78125 130.037762,31.6497409 129.628906,31.3867188 C129.22005,31.1236966 128.96875,30.6770865 128.875,30.046875 L128.632812,28.453125 C128.523437,27.7031212 128.377605,27.1367207 128.195312,26.7539062 C128.01302,26.3710918 127.734377,26.1796875 127.359375,26.1796875 L126.632812,26.1796875 L126.632812,29.859375 C126.632812,30.2604187 126.661458,30.5520824 126.71875,30.734375 C126.776042,30.9166676 126.88151,31.0416663 127.035156,31.109375 C127.188803,31.1770837 127.434894,31.2187499 127.773438,31.234375 L127.773438,31.5546875 C127.148434,31.5234373 126.257818,31.5078125 125.101562,31.5078125 C123.809889,31.5078125 122.859378,31.5234373 122.25,31.5546875 L122.25,31.234375 C122.593752,31.2187499 122.842447,31.1770837 122.996094,31.109375 C123.14974,31.0416663 123.253906,30.9166676 123.308594,30.734375 C123.363282,30.5520824 123.390625,30.2604187 123.390625,29.859375 L123.390625,21.921875 C123.390625,21.5208313 123.361979,21.2291676 123.304688,21.046875 C123.247396,20.8645824 123.141928,20.7395837 122.988281,20.671875 C122.834635,20.6041663 122.588543,20.5625001 122.25,20.546875 L122.25,20.2265625 C122.859378,20.2578127 123.77864,20.2734375 125.007812,20.2734375 C125.445315,20.2734375 125.932289,20.2682292 126.46875,20.2578125 C127.005211,20.2473958 127.374999,20.2421875 127.578125,20.2421875 C129.203133,20.2421875 130.412756,20.4700498 131.207031,20.9257812 C132.001306,21.3815127 132.398438,22.0807245 132.398438,23.0234375 C132.398438,23.8255248 132.098961,24.5091118 131.5,25.0742188 C130.901039,25.6393257 129.89584,25.9895827 128.484375,26.125 C129.572922,26.1875003 130.397133,26.3867171 130.957031,26.7226562 C131.51693,27.0585954 131.859374,27.5546842 131.984375,28.2109375 L132.320312,29.875 C132.398438,30.265627 132.490885,30.5364576 132.597656,30.6875 C132.704428,30.8385424 132.851562,30.9140625 133.039062,30.9140625 C133.231772,30.9140625 133.395833,30.8437507 133.53125,30.703125 L133.742188,30.9140625 C133.424478,31.2317724 133.072919,31.4557285 132.6875,31.5859375 Z M128.285156,25.515625 C128.57422,25.2864572 128.772135,24.9791686 128.878906,24.59375 C128.985678,24.2083314 129.039062,23.7447944 129.039062,23.203125 C129.039062,22.3281206 128.919272,21.6666689 128.679688,21.21875 C128.440103,20.7708311 128.046878,20.546875 127.5,20.546875 C127.255207,20.546875 127.071615,20.584635 126.949219,20.6601562 C126.826822,20.7356775 126.74349,20.8697907 126.699219,21.0625 C126.654948,21.2552093 126.632812,21.5416648 126.632812,21.921875 L126.632812,25.859375 L127.070312,25.859375 C127.591148,25.859375 127.996092,25.7447928 128.285156,25.515625 Z M142.804688,20.2578125 C143.30469,20.2578125 143.716144,20.2421877 144.039062,20.2109375 L144.039062,20.53125 C143.486976,20.8020847 142.919274,21.5104109 142.335938,22.65625 L140.851562,25.6015625 L140.851562,29.859375 C140.851562,30.2604187 140.880208,30.5520824 140.9375,30.734375 C140.994792,30.9166676 141.098958,31.0416663 141.25,31.109375 C141.401042,31.1770837 141.645832,31.2187499 141.984375,31.234375 L141.984375,31.5546875 C141.369789,31.5234373 140.453131,31.5078125 139.234375,31.5078125 C137.968744,31.5078125 137.046878,31.5234373 136.46875,31.5546875 L136.46875,31.234375 C136.812502,31.2187499 137.059895,31.1770837 137.210938,31.109375 C137.36198,31.0416663 137.464843,30.9179696 137.519531,30.7382812 C137.574219,30.5585929 137.601562,30.265627 137.601562,29.859375 L137.601562,26.9140625 L134.640625,21.4453125 C134.468749,21.1328109 134.303386,20.9049486 134.144531,20.7617188 C133.985676,20.6184889 133.843751,20.546875 133.71875,20.546875 L133.71875,20.2109375 C134.375003,20.2734378 135.109371,20.3046875 135.921875,20.3046875 C136.843755,20.3046875 138.018222,20.2734378 139.445312,20.2109375 L139.445312,20.546875 C139.013019,20.546875 138.690105,20.5677081 138.476562,20.609375 C138.26302,20.6510419 138.15625,20.7526034 138.15625,20.9140625 C138.15625,20.9817712 138.179687,21.0624995 138.226562,21.15625 L140.507812,25.546875 L141.234375,24.1015625 C141.739586,23.0911408 141.992188,22.2968779 141.992188,21.71875 C141.992188,20.9635379 141.565108,20.5677085 140.710938,20.53125 L140.710938,20.2109375 C141.507816,20.2421877 142.205726,20.2578125 142.804688,20.2578125 Z" id="treachery" fill="#498AFE"></path>
            <path d="M24.504,47.816 L31.014,47.816 L31.014,57 L29.852,57 L29.852,48.796 L25.666,48.796 L25.666,57 L24.504,57 L24.504,47.816 Z M33.422,50.196 L34.374,50.196 L34.472,50.98 L34.514,50.98 C34.8220015,50.7186654 35.1603315,50.4946676 35.529,50.308 C35.8976685,50.1213324 36.2826647,50.028 36.684,50.028 C37.1226689,50.028 37.5099983,50.1096658 37.846,50.273 C38.1820017,50.4363341 38.4619989,50.6696652 38.686,50.973 C38.9100011,51.2763348 39.0803327,51.6403312 39.197,52.065 C39.3136673,52.4896688 39.372,52.9679973 39.372,53.5 C39.372,54.0786696 39.2926675,54.5943311 39.134,55.047 C38.9753325,55.4996689 38.760668,55.8846651 38.49,56.202 C38.219332,56.5193349 37.9066684,56.7596659 37.552,56.923 C37.1973316,57.0863341 36.824002,57.168 36.432,57.168 C36.1146651,57.168 35.7996682,57.0980007 35.487,56.958 C35.1743318,56.8179993 34.8593349,56.6266679 34.542,56.384 L34.57,57.574 L34.57,59.87 L33.422,59.87 L33.422,50.196 Z M36.236,56.202 C36.5160014,56.202 36.7749988,56.1390006 37.013,56.013 C37.2510012,55.8869994 37.4563325,55.7096678 37.629,55.481 C37.8016675,55.2523322 37.9369995,54.9700017 38.035,54.634 C38.1330005,54.2979983 38.182,53.9200021 38.182,53.5 C38.182,53.1266648 38.1493337,52.7860015 38.084,52.478 C38.0186663,52.1699985 37.9136674,51.9063344 37.769,51.687 C37.6243326,51.4676656 37.4376678,51.2973339 37.209,51.176 C36.9803322,51.0546661 36.7073349,50.994 36.39,50.994 C36.1006652,50.994 35.8090015,51.0733325 35.515,51.232 C35.2209985,51.3906675 34.9060017,51.6193318 34.57,51.918 L34.57,55.488 C34.8780015,55.7493346 35.1766652,55.9336661 35.466,56.041 C35.7553348,56.1483339 36.0119989,56.202 36.236,56.202 Z M43.95,57.168 C43.4926644,57.168 43.0656686,57.0863341 42.669,56.923 C42.2723314,56.7596659 41.9270015,56.5263348 41.633,56.223 C41.3389985,55.9196652 41.1080008,55.5486689 40.94,55.11 C40.7719992,54.6713311 40.688,54.1720028 40.688,53.612 C40.688,53.0519972 40.7743325,52.5503355 40.947,52.107 C41.1196675,51.6636644 41.3483319,51.2880015 41.633,50.98 C41.9176681,50.6719985 42.2419982,50.4363341 42.606,50.273 C42.9700018,50.1096658 43.347998,50.028 43.74,50.028 C44.1693355,50.028 44.5543316,50.1026659 44.895,50.252 C45.2356684,50.4013341 45.5203322,50.6159986 45.749,50.896 C45.9776678,51.1760014 46.1526661,51.511998 46.274,51.904 C46.3953339,52.296002 46.456,52.7346642 46.456,53.22 C46.456,53.3413339 46.4536667,53.4603327 46.449,53.577 C46.4443333,53.6936673 46.4326668,53.7939996 46.414,53.878 L41.822,53.878 C41.8686669,54.6060036 42.094998,55.1823312 42.501,55.607 C42.907002,56.0316688 43.4366634,56.244 44.09,56.244 C44.4166683,56.244 44.7176653,56.1950005 44.993,56.097 C45.2683347,55.9989995 45.5319987,55.8706675 45.784,55.712 L46.19,56.468 C45.8913318,56.6546676 45.5600018,56.8179993 45.196,56.958 C44.8319982,57.0980007 44.416669,57.168 43.95,57.168 Z M45.448,53.052 C45.448,52.3613299 45.3010015,51.8363351 45.007,51.477 C44.7129985,51.1176649 44.3000027,50.938 43.768,50.938 C43.5253321,50.938 43.2943344,50.9846662 43.075,51.078 C42.8556656,51.1713338 42.6573342,51.3089991 42.48,51.491 C42.3026658,51.6730009 42.1556673,51.8946654 42.039,52.156 C41.9223328,52.4173346 41.8453335,52.7159983 41.808,53.052 L45.448,53.052 Z M49.55,53.43 C49.475333,54.1020034 49.3750006,54.6479979 49.249,55.068 C49.1229994,55.4880021 48.9806675,55.8193321 48.822,56.062 L51.986,56.062 L51.986,51.134 L49.816,51.134 L49.55,53.43 Z M54.128,56.062 L54.128,56.79 L54.016,59.408 L53.022,59.408 L53.022,57 L48.374,57 L48.374,59.408 L47.38,59.408 L47.254,56.79 L47.254,56.062 L47.59,56.062 C47.6833338,56.0059997 47.7743329,55.9290005 47.863,55.831 C47.9516671,55.7329995 48.033333,55.5813344 48.108,55.376 C48.182667,55.1706656 48.257333,54.8953351 48.332,54.55 C48.406667,54.2046649 48.4766663,53.7566694 48.542,53.206 L48.906,50.196 L53.134,50.196 L53.134,56.062 L54.128,56.062 Z M57.152,57.168 C56.5826638,57.168 56.1090019,57.0000017 55.731,56.664 C55.3529981,56.3279983 55.164,55.8520031 55.164,55.236 C55.164,54.4893296 55.49533,53.9176686 56.158,53.521 C56.82067,53.1243314 57.8799927,52.8466675 59.336,52.688 C59.336,52.4733323 59.3150002,52.2633344 59.273,52.058 C59.2309998,51.8526656 59.1586672,51.6706675 59.056,51.512 C58.9533328,51.3533325 58.8110009,51.2250005 58.629,51.127 C58.4469991,51.0289995 58.2160014,50.98 57.936,50.98 C57.543998,50.98 57.1753351,51.0546659 56.83,51.204 C56.4846649,51.3533341 56.176668,51.5213324 55.906,51.708 L55.458,50.91 C55.7753349,50.7046656 56.1626644,50.5063343 56.62,50.315 C57.0773356,50.1236657 57.5813306,50.028 58.132,50.028 C58.9626708,50.028 59.5646648,50.2823308 59.938,50.791 C60.3113352,51.2996692 60.498,51.9786624 60.498,52.828 L60.498,57 L59.546,57 L59.448,56.188 L59.406,56.188 C59.0793317,56.458668 58.7293352,56.6896657 58.356,56.881 C57.9826648,57.0723343 57.5813355,57.168 57.152,57.168 Z M57.488,56.244 C57.8146683,56.244 58.1226652,56.1670008 58.412,56.013 C58.7013348,55.8589992 59.0093317,55.6326682 59.336,55.334 L59.336,53.444 C58.7666638,53.518667 58.2883353,53.6073328 57.901,53.71 C57.5136647,53.8126672 57.2010012,53.9339993 56.963,54.074 C56.7249988,54.2140007 56.5523339,54.3749991 56.445,54.557 C56.3376661,54.7390009 56.284,54.9373323 56.284,55.152 C56.284,55.544002 56.4006655,55.8239992 56.634,55.992 C56.8673345,56.1600008 57.1519983,56.244 57.488,56.244 Z M64.138,51.134 L61.856,51.134 L61.856,50.196 L67.568,50.196 L67.568,51.134 L65.286,51.134 L65.286,57 L64.138,57 L64.138,51.134 Z M71.838,57.168 C71.3806644,57.168 70.9536686,57.0863341 70.557,56.923 C70.1603313,56.7596659 69.8150015,56.5263348 69.521,56.223 C69.2269985,55.9196652 68.9960008,55.5486689 68.828,55.11 C68.6599992,54.6713311 68.576,54.1720028 68.576,53.612 C68.576,53.0519972 68.6623325,52.5503355 68.835,52.107 C69.0076675,51.6636644 69.2363319,51.2880015 69.521,50.98 C69.8056681,50.6719985 70.1299982,50.4363341 70.494,50.273 C70.8580018,50.1096658 71.235998,50.028 71.628,50.028 C72.0573355,50.028 72.4423316,50.1026659 72.783,50.252 C73.1236684,50.4013341 73.4083322,50.6159986 73.637,50.896 C73.8656678,51.1760014 74.0406661,51.511998 74.162,51.904 C74.2833339,52.296002 74.344,52.7346642 74.344,53.22 C74.344,53.3413339 74.3416667,53.4603327 74.337,53.577 C74.3323333,53.6936673 74.3206668,53.7939996 74.302,53.878 L69.71,53.878 C69.7566669,54.6060036 69.982998,55.1823312 70.389,55.607 C70.795002,56.0316688 71.3246634,56.244 71.978,56.244 C72.3046683,56.244 72.6056653,56.1950005 72.881,56.097 C73.1563347,55.9989995 73.4199987,55.8706675 73.672,55.712 L74.078,56.468 C73.7793318,56.6546676 73.4480018,56.8179993 73.084,56.958 C72.7199982,57.0980007 72.304669,57.168 71.838,57.168 Z M73.336,53.052 C73.336,52.3613299 73.1890015,51.8363351 72.895,51.477 C72.6009985,51.1176649 72.1880027,50.938 71.656,50.938 C71.4133321,50.938 71.1823344,50.9846662 70.963,51.078 C70.7436656,51.1713338 70.5453342,51.3089991 70.368,51.491 C70.1906658,51.6730009 70.0436672,51.8946654 69.927,52.156 C69.8103328,52.4173346 69.7333335,52.7159983 69.696,53.052 L73.336,53.052 Z M75.632,57.168 C75.5013327,57.168 75.3916671,57.1586668 75.303,57.14 C75.2143329,57.1213332 75.1186672,57.0933335 75.016,57.056 L75.24,55.992 C75.2866669,56.0106668 75.3333331,56.0246666 75.38,56.034 C75.4266669,56.0433334 75.4826663,56.048 75.548,56.048 C75.7906679,56.048 75.9866659,55.9336678 76.136,55.705 C76.2853341,55.4763322 76.3926663,55.1100025 76.458,54.606 C76.5513338,53.868663 76.6399996,53.1336703 76.724,52.401 C76.8080004,51.6683297 76.8919996,50.933337 76.976,50.196 L81.162,50.196 L81.162,57 L80,57 L80,51.134 L77.886,51.134 C77.811333,51.7593365 77.736667,52.3869969 77.662,53.017 C77.587333,53.6470032 77.512667,54.2746635 77.438,54.9 C77.241999,56.4120076 76.640005,57.168 75.632,57.168 Z M83.458,50.196 L84.606,50.196 L84.606,52.702 L85.894,52.702 C86.2953353,52.702 86.661665,52.7439996 86.993,52.828 C87.324335,52.9120004 87.6089988,53.0403325 87.847,53.213 C88.0850012,53.3856675 88.2693327,53.6049987 88.4,53.871 C88.5306673,54.1370013 88.596,54.4566648 88.596,54.83 C88.596,55.2126686 88.5306673,55.539332 88.4,55.81 C88.2693327,56.080668 88.0850012,56.3046658 87.847,56.482 C87.6089988,56.6593342 87.324335,56.7899996 86.993,56.874 C86.661665,56.9580004 86.2953353,57 85.894,57 L83.458,57 L83.458,50.196 Z M85.768,56.076 C86.897339,56.076 87.462,55.6606708 87.462,54.83 C87.462,54.4006645 87.3243347,54.088001 87.049,53.892 C86.7736653,53.695999 86.3466696,53.598 85.768,53.598 L84.606,53.598 L84.606,56.076 L85.768,56.076 Z M93.02,57.168 C92.5719978,57.168 92.152002,57.0886675 91.76,56.93 C91.367998,56.7713325 91.0296681,56.5403348 90.745,56.237 C90.4603319,55.9336651 90.2363342,55.5603355 90.073,55.117 C89.9096659,54.6736644 89.828,54.1720028 89.828,53.612 C89.828,53.0426638 89.9166658,52.5363356 90.094,52.093 C90.2713342,51.6496645 90.5093318,51.2740015 90.808,50.966 C91.1066682,50.6579985 91.4543313,50.4246675 91.851,50.266 C92.2476687,50.1073325 92.6653311,50.028 93.104,50.028 C93.5520022,50.028 93.9346651,50.1073325 94.252,50.266 C94.5693349,50.4246675 94.8493321,50.6113323 95.092,50.826 L94.504,51.582 C94.307999,51.4046658 94.1003344,51.2600006 93.881,51.148 C93.6616656,51.0359994 93.416668,50.98 93.146,50.98 C92.8379985,50.98 92.5533346,51.0429994 92.292,51.169 C92.0306654,51.2950006 91.8066676,51.4746655 91.62,51.708 C91.4333324,51.9413345 91.2863339,52.2189984 91.179,52.541 C91.0716661,52.8630016 91.018,53.219998 91.018,53.612 C91.018,54.004002 91.0693328,54.3586651 91.172,54.676 C91.2746672,54.9933349 91.4169991,55.2663322 91.599,55.495 C91.7810009,55.7236678 92.0026654,55.9009994 92.264,56.027 C92.5253346,56.1530006 92.8099985,56.216 93.118,56.216 C93.4353349,56.216 93.7269987,56.148334 93.993,56.013 C94.2590013,55.877666 94.4993323,55.7166676 94.714,55.53 L95.218,56.3 C94.9099985,56.570668 94.5693352,56.7829992 94.196,56.937 C93.8226648,57.0910008 93.4306687,57.168 93.02,57.168 Z M98.214,51.134 L95.932,51.134 L95.932,50.196 L101.644,50.196 L101.644,51.134 L99.362,51.134 L99.362,57 L98.214,57 L98.214,51.134 Z M103.156,50.196 L105.774,50.196 C106.147335,50.196 106.487998,50.2286663 106.796,50.294 C107.104002,50.3593337 107.367666,50.459666 107.587,50.595 C107.806334,50.730334 107.976666,50.9076656 108.098,51.127 C108.219334,51.3463344 108.28,51.6099985 108.28,51.918 C108.28,52.3006686 108.179668,52.6133321 107.979,52.856 C107.778332,53.0986679 107.500668,53.2713328 107.146,53.374 L107.146,53.416 C107.342001,53.4626669 107.526332,53.5279996 107.699,53.612 C107.871668,53.6960004 108.023333,53.8033327 108.154,53.934 C108.284667,54.0646673 108.387333,54.2233324 108.462,54.41 C108.536667,54.5966676 108.574,54.8113321 108.574,55.054 C108.574,55.3900017 108.506334,55.6793321 108.371,55.922 C108.235666,56.1646679 108.049001,56.3676659 107.811,56.531 C107.572999,56.6943342 107.290668,56.813333 106.964,56.888 C106.637332,56.962667 106.278002,57 105.886,57 L103.156,57 L103.156,50.196 Z M105.578,53.052 C106.147336,53.052 106.553332,52.9610009 106.796,52.779 C107.038668,52.5969991 107.16,52.3473349 107.16,52.03 C107.16,51.7126651 107.043335,51.4653342 106.81,51.288 C106.576665,51.1106658 106.194003,51.022 105.662,51.022 L104.29,51.022 L104.29,53.052 L105.578,53.052 Z M105.76,56.174 C106.320003,56.174 106.737665,56.0713344 107.013,55.866 C107.288335,55.6606656 107.426,55.3666686 107.426,54.984 C107.426,54.6386649 107.281335,54.368001 106.992,54.172 C106.702665,53.975999 106.26867,53.878 105.69,53.878 L104.29,53.878 L104.29,56.174 L105.76,56.174 Z M112.914,57.168 C112.493998,57.168 112.095002,57.0886675 111.717,56.93 C111.338998,56.7713325 111.005335,56.5403348 110.716,56.237 C110.426665,55.9336651 110.195668,55.5603355 110.023,55.117 C109.850332,54.6736644 109.764,54.1720028 109.764,53.612 C109.764,53.0426638 109.850332,52.5363356 110.023,52.093 C110.195668,51.6496645 110.426665,51.2740015 110.716,50.966 C111.005335,50.6579985 111.338998,50.4246675 111.717,50.266 C112.095002,50.1073325 112.493998,50.028 112.914,50.028 C113.334002,50.028 113.732998,50.1073325 114.111,50.266 C114.489002,50.4246675 114.822665,50.6579985 115.112,50.966 C115.401335,51.2740015 115.632332,51.6496645 115.805,52.093 C115.977668,52.5363356 116.064,53.0426638 116.064,53.612 C116.064,54.1720028 115.977668,54.6736644 115.805,55.117 C115.632332,55.5603355 115.401335,55.9336651 115.112,56.237 C114.822665,56.5403348 114.489002,56.7713325 114.111,56.93 C113.732998,57.0886675 113.334002,57.168 112.914,57.168 Z M112.914,56.216 C113.203335,56.216 113.469332,56.1530006 113.712,56.027 C113.954668,55.9009994 114.162332,55.7236678 114.335,55.495 C114.507668,55.2663322 114.640666,54.9933349 114.734,54.676 C114.827334,54.3586651 114.874,54.004002 114.874,53.612 C114.874,53.219998 114.827334,52.8630016 114.734,52.541 C114.640666,52.2189984 114.507668,51.9413345 114.335,51.708 C114.162332,51.4746655 113.954668,51.2950006 113.712,51.169 C113.469332,51.0429994 113.203335,50.98 112.914,50.98 C112.624665,50.98 112.358668,51.0429994 112.116,51.169 C111.873332,51.2950006 111.665668,51.4746655 111.493,51.708 C111.320332,51.9413345 111.187334,52.2189984 111.094,52.541 C111.000666,52.8630016 110.954,53.219998 110.954,53.612 C110.954,54.004002 111.000666,54.3586651 111.094,54.676 C111.187334,54.9933349 111.320332,55.2663322 111.493,55.495 C111.665668,55.7236678 111.873332,55.9009994 112.116,56.027 C112.358668,56.1530006 112.624665,56.216 112.914,56.216 Z M117.366,58.708 C117.758002,58.5306658 118.065999,58.2973348 118.29,58.008 C118.514001,57.7186652 118.626,57.3826686 118.626,57 C118.598,57.0093334 118.551334,57.014 118.486,57.014 C118.261999,57.014 118.068334,56.946334 117.905,56.811 C117.741666,56.675666 117.66,56.4773346 117.66,56.216 C117.66,55.9639987 117.743999,55.7656674 117.912,55.621 C118.080001,55.4763326 118.280666,55.404 118.514,55.404 C118.812668,55.404 119.048332,55.5253321 119.221,55.768 C119.393668,56.0106679 119.48,56.3419979 119.48,56.762 C119.48,57.3686697 119.316668,57.8959978 118.99,58.344 C118.663332,58.7920022 118.215336,59.1373321 117.646,59.38 L117.366,58.708 Z M124.142,50.196 L125.262,50.196 L125.262,53.024 C125.262,53.3880018 125.250333,53.7869978 125.227,54.221 C125.203667,54.6550022 125.178,55.0913311 125.15,55.53 L125.206,55.53 C125.336667,55.3153323 125.488332,55.072668 125.661,54.802 C125.833668,54.531332 125.980666,54.2886677 126.102,54.074 L128.678,50.196 L129.756,50.196 L129.756,57 L128.636,57 L128.636,54.172 C128.636,53.8079982 128.647667,53.4090022 128.671,52.975 C128.694333,52.5409978 128.72,52.1000022 128.748,51.652 L128.692,51.652 C128.561333,51.8666677 128.409668,52.1116653 128.237,52.387 C128.064332,52.6623347 127.917334,52.9026656 127.796,53.108 L125.206,57 L124.142,57 L124.142,50.196 Z M133.998,57.168 C133.521998,57.168 133.074002,57.1050006 132.654,56.979 C132.233998,56.8529994 131.823335,56.6266683 131.422,56.3 L131.912,55.558 C132.229335,55.8193346 132.553665,55.9989995 132.885,56.097 C133.216335,56.1950005 133.554665,56.244 133.9,56.244 C134.133335,56.244 134.352666,56.2160003 134.558,56.16 C134.763334,56.1039997 134.942999,56.0246672 135.097,55.922 C135.251001,55.8193328 135.372333,55.6910008 135.461,55.537 C135.549667,55.3829992 135.594,55.2126676 135.594,55.026 C135.594,54.633998 135.444668,54.3446676 135.146,54.158 C134.847332,53.9713324 134.418003,53.878 133.858,53.878 L132.92,53.878 L132.92,53.052 L133.69,53.052 C134.240669,53.052 134.651332,52.9563343 134.922,52.765 C135.192668,52.5736657 135.328,52.3100017 135.328,51.974 C135.328,51.6286649 135.197335,51.3696675 134.936,51.197 C134.674665,51.0243325 134.334002,50.938 133.914,50.938 C133.521998,50.938 133.183668,50.9893328 132.899,51.092 C132.614332,51.1946672 132.336668,51.343999 132.066,51.54 L131.576,50.784 C131.902668,50.5506655 132.259665,50.366334 132.647,50.231 C133.034335,50.095666 133.475331,50.028 133.97,50.028 C134.306002,50.028 134.623332,50.065333 134.922,50.14 C135.220668,50.214667 135.481999,50.3266659 135.706,50.476 C135.930001,50.6253341 136.109666,50.8166655 136.245,51.05 C136.380334,51.2833345 136.448,51.5539985 136.448,51.862 C136.448,52.1886683 136.350001,52.487332 136.154,52.758 C135.957999,53.028668 135.682668,53.2339993 135.328,53.374 L135.328,53.43 C135.720002,53.5326672 136.053665,53.7169987 136.329,53.983 C136.604335,54.2490013 136.742,54.6293309 136.742,55.124 C136.742,55.4413349 136.667334,55.7259987 136.518,55.978 C136.368666,56.2300013 136.168001,56.4446658 135.916,56.622 C135.663999,56.7993342 135.372335,56.9346662 135.041,57.028 C134.709665,57.1213338 134.362002,57.168 133.998,57.168 Z M138.436,50.196 L139.766,50.196 L141.096,53.388 C141.198667,53.6680014 141.301333,53.9456653 141.404,54.221 C141.506667,54.4963347 141.609333,54.769332 141.712,55.04 L141.768,55.04 C141.870667,54.769332 141.975666,54.4963347 142.083,54.221 C142.190334,53.9456653 142.290666,53.6680014 142.384,53.388 L143.686,50.196 L145.002,50.196 L145.002,57 L143.952,57 L143.952,53.948 C143.952,53.7986659 143.956667,53.6236677 143.966,53.423 C143.975333,53.2223323 143.987,53.0170011 144.001,52.807 L144.043,52.177 C144.057,51.966999 144.073333,51.7733342 144.092,51.596 L144.036,51.596 C143.933333,51.866668 143.828334,52.1396653 143.721,52.415 C143.613666,52.6903347 143.508667,52.9539987 143.406,53.206 L142.118,56.356 L141.348,56.356 L140.032,53.206 C139.929333,52.9539987 139.824334,52.6903347 139.717,52.415 C139.609666,52.1396653 139.504667,51.866668 139.402,51.596 L139.346,51.596 C139.355333,51.7733342 139.367,51.966999 139.381,52.177 L139.423,52.807 C139.437,53.0170011 139.448667,53.2223323 139.458,53.423 C139.467333,53.6236677 139.472,53.7986659 139.472,53.948 L139.472,57 L138.436,57 L138.436,50.196 Z M150.056,57.168 C149.598664,57.168 149.171669,57.0863341 148.775,56.923 C148.378331,56.7596659 148.033001,56.5263348 147.739,56.223 C147.444999,55.9196652 147.214001,55.5486689 147.046,55.11 C146.877999,54.6713311 146.794,54.1720028 146.794,53.612 C146.794,53.0519972 146.880332,52.5503355 147.053,52.107 C147.225668,51.6636644 147.454332,51.2880015 147.739,50.98 C148.023668,50.6719985 148.347998,50.4363341 148.712,50.273 C149.076002,50.1096658 149.453998,50.028 149.846,50.028 C150.275335,50.028 150.660332,50.1026659 151.001,50.252 C151.341668,50.4013341 151.626332,50.6159986 151.855,50.896 C152.083668,51.1760014 152.258666,51.511998 152.38,51.904 C152.501334,52.296002 152.562,52.7346642 152.562,53.22 C152.562,53.3413339 152.559667,53.4603327 152.555,53.577 C152.550333,53.6936673 152.538667,53.7939996 152.52,53.878 L147.928,53.878 C147.974667,54.6060036 148.200998,55.1823312 148.607,55.607 C149.013002,56.0316688 149.542663,56.244 150.196,56.244 C150.522668,56.244 150.823665,56.1950005 151.099,56.097 C151.374335,55.9989995 151.637999,55.8706675 151.89,55.712 L152.296,56.468 C151.997332,56.6546676 151.666002,56.8179993 151.302,56.958 C150.937998,57.0980007 150.522669,57.168 150.056,57.168 Z M151.554,53.052 C151.554,52.3613299 151.407001,51.8363351 151.113,51.477 C150.818999,51.1176649 150.406003,50.938 149.874,50.938 C149.631332,50.938 149.400334,50.9846662 149.181,51.078 C148.961666,51.1713338 148.763334,51.3089991 148.586,51.491 C148.408666,51.6730009 148.261667,51.8946654 148.145,52.156 C148.028333,52.4173346 147.951334,52.7159983 147.914,53.052 L151.554,53.052 Z M154.242,50.196 L155.39,50.196 L155.39,52.954 L158.666,52.954 L158.666,50.196 L159.814,50.196 L159.814,57 L158.666,57 L158.666,53.976 L155.39,53.976 L155.39,57 L154.242,57 L154.242,50.196 Z M163.678,57.168 C163.108664,57.168 162.635002,57.0000017 162.257,56.664 C161.878998,56.3279983 161.69,55.8520031 161.69,55.236 C161.69,54.4893296 162.02133,53.9176686 162.684,53.521 C163.34667,53.1243314 164.405993,52.8466675 165.862,52.688 C165.862,52.4733323 165.841,52.2633344 165.799,52.058 C165.757,51.8526656 165.684667,51.6706675 165.582,51.512 C165.479333,51.3533325 165.337001,51.2250005 165.155,51.127 C164.972999,51.0289995 164.742001,50.98 164.462,50.98 C164.069998,50.98 163.701335,51.0546659 163.356,51.204 C163.010665,51.3533341 162.702668,51.5213324 162.432,51.708 L161.984,50.91 C162.301335,50.7046656 162.688664,50.5063343 163.146,50.315 C163.603336,50.1236657 164.107331,50.028 164.658,50.028 C165.488671,50.028 166.090665,50.2823308 166.464,50.791 C166.837335,51.2996692 167.024,51.9786624 167.024,52.828 L167.024,57 L166.072,57 L165.974,56.188 L165.932,56.188 C165.605332,56.458668 165.255335,56.6896657 164.882,56.881 C164.508665,57.0723343 164.107335,57.168 163.678,57.168 Z M164.014,56.244 C164.340668,56.244 164.648665,56.1670008 164.938,56.013 C165.227335,55.8589992 165.535332,55.6326682 165.862,55.334 L165.862,53.444 C165.292664,53.518667 164.814335,53.6073328 164.427,53.71 C164.039665,53.8126672 163.727001,53.9339993 163.489,54.074 C163.250999,54.2140007 163.078334,54.3749991 162.971,54.557 C162.863666,54.7390009 162.81,54.9373323 162.81,55.152 C162.81,55.544002 162.926666,55.8239992 163.16,55.992 C163.393334,56.1600008 163.677998,56.244 164.014,56.244 Z M24.504,69.816 L27.234,69.816 C27.700669,69.816 28.1276647,69.8579996 28.515,69.942 C28.9023353,70.0260004 29.2336653,70.1566658 29.509,70.334 C29.7843347,70.5113342 29.9989992,70.7423319 30.153,71.027 C30.3070008,71.3116681 30.384,71.6546647 30.384,72.056 C30.384,72.5133356 30.2696678,72.9263315 30.041,73.295 C29.8123322,73.6636685 29.4786689,73.9179993 29.04,74.058 L29.04,74.114 C29.6000028,74.2166672 30.0526649,74.4499982 30.398,74.814 C30.7433351,75.1780018 30.916,75.6773302 30.916,76.312 C30.916,76.7600022 30.8320008,77.1519983 30.664,77.488 C30.4959992,77.8240017 30.2580015,78.1039989 29.95,78.328 C29.6419985,78.5520011 29.2733355,78.7199994 28.844,78.832 C28.4146645,78.9440006 27.9433359,79 27.43,79 L24.504,79 L24.504,69.816 Z M27.024,73.722 C27.8080039,73.722 28.3726649,73.586668 28.718,73.316 C29.0633351,73.045332 29.236,72.676669 29.236,72.21 C29.236,71.6779973 29.0563351,71.3000011 28.697,71.076 C28.3376649,70.8519989 27.7986703,70.74 27.08,70.74 L25.666,70.74 L25.666,73.722 L27.024,73.722 Z M27.262,78.076 C28.0553373,78.076 28.6713311,77.9290015 29.11,77.635 C29.5486689,77.3409985 29.768,76.8860031 29.768,76.27 C29.768,75.7006638 29.5533355,75.2830013 29.124,75.017 C28.6946645,74.7509987 28.0740041,74.618 27.262,74.618 L25.666,74.618 L25.666,78.076 L27.262,78.076 Z M35.382,79.168 C34.9246644,79.168 34.4976687,79.0863341 34.101,78.923 C33.7043313,78.7596659 33.3590015,78.5263349 33.065,78.223 C32.7709985,77.9196652 32.5400008,77.5486689 32.372,77.11 C32.2039992,76.6713311 32.12,76.1720028 32.12,75.612 C32.12,75.0519972 32.2063325,74.5503355 32.379,74.107 C32.5516675,73.6636644 32.7803319,73.2880015 33.065,72.98 C33.3496681,72.6719985 33.6739982,72.4363341 34.038,72.273 C34.4020018,72.1096658 34.779998,72.028 35.172,72.028 C35.6013355,72.028 35.9863316,72.1026659 36.327,72.252 C36.6676684,72.4013341 36.9523322,72.6159986 37.181,72.896 C37.4096678,73.1760014 37.5846661,73.511998 37.706,73.904 C37.8273339,74.296002 37.888,74.7346642 37.888,75.22 C37.888,75.3413339 37.8856667,75.4603327 37.881,75.577 C37.8763333,75.6936673 37.8646668,75.7939996 37.846,75.878 L33.254,75.878 C33.3006669,76.6060036 33.526998,77.1823312 33.933,77.607 C34.339002,78.0316688 34.8686634,78.244 35.522,78.244 C35.8486683,78.244 36.1496653,78.1950005 36.425,78.097 C36.7003347,77.9989995 36.9639987,77.8706675 37.216,77.712 L37.622,78.468 C37.3233318,78.6546676 36.9920018,78.8179993 36.628,78.958 C36.2639982,79.0980007 35.848669,79.168 35.382,79.168 Z M36.88,75.052 C36.88,74.3613299 36.7330015,73.8363351 36.439,73.477 C36.1449985,73.1176649 35.7320027,72.938 35.2,72.938 C34.9573321,72.938 34.7263344,72.9846662 34.507,73.078 C34.2876656,73.1713338 34.0893342,73.3089991 33.912,73.491 C33.7346658,73.6730009 33.5876672,73.8946654 33.471,74.156 C33.3543328,74.4173346 33.2773335,74.7159983 33.24,75.052 L36.88,75.052 Z M39.568,72.196 L40.52,72.196 L40.618,72.98 L40.66,72.98 C40.9680015,72.7186654 41.3063315,72.4946676 41.675,72.308 C42.0436685,72.1213324 42.4286647,72.028 42.83,72.028 C43.2686689,72.028 43.6559983,72.1096658 43.992,72.273 C44.3280017,72.4363341 44.6079989,72.6696652 44.832,72.973 C45.0560011,73.2763349 45.2263328,73.6403312 45.343,74.065 C45.4596673,74.4896688 45.518,74.9679973 45.518,75.5 C45.518,76.0786696 45.4386675,76.5943311 45.28,77.047 C45.1213325,77.4996689 44.906668,77.8846651 44.636,78.202 C44.365332,78.5193349 44.0526684,78.7596659 43.698,78.923 C43.3433316,79.0863341 42.970002,79.168 42.578,79.168 C42.2606651,79.168 41.9456682,79.0980007 41.633,78.958 C41.3203318,78.8179993 41.0053349,78.6266679 40.688,78.384 L40.716,79.574 L40.716,81.87 L39.568,81.87 L39.568,72.196 Z M42.382,78.202 C42.6620014,78.202 42.9209988,78.1390006 43.159,78.013 C43.3970012,77.8869994 43.6023325,77.7096678 43.775,77.481 C43.9476675,77.2523322 44.0829995,76.9700017 44.181,76.634 C44.2790005,76.2979983 44.328,75.9200021 44.328,75.5 C44.328,75.1266648 44.2953337,74.7860015 44.23,74.478 C44.1646663,74.1699985 44.0596674,73.9063344 43.915,73.687 C43.7703326,73.4676656 43.5836678,73.2973339 43.355,73.176 C43.1263322,73.0546661 42.8533349,72.994 42.536,72.994 C42.2466652,72.994 41.9550015,73.0733325 41.661,73.232 C41.3669985,73.3906675 41.0520017,73.6193318 40.716,73.918 L40.716,77.488 C41.0240015,77.7493346 41.3226652,77.9336661 41.612,78.041 C41.9013348,78.1483339 42.1579989,78.202 42.382,78.202 Z M49.984,79.168 C49.5639979,79.168 49.1650019,79.0886675 48.787,78.93 C48.4089981,78.7713325 48.0753348,78.5403348 47.786,78.237 C47.4966652,77.9336651 47.2656675,77.5603355 47.093,77.117 C46.9203325,76.6736644 46.834,76.1720028 46.834,75.612 C46.834,75.0426638 46.9203325,74.5363355 47.093,74.093 C47.2656675,73.6496644 47.4966652,73.2740015 47.786,72.966 C48.0753348,72.6579985 48.4089981,72.4246675 48.787,72.266 C49.1650019,72.1073325 49.5639979,72.028 49.984,72.028 C50.4040021,72.028 50.8029981,72.1073325 51.181,72.266 C51.5590019,72.4246675 51.8926652,72.6579985 52.182,72.966 C52.4713348,73.2740015 52.7023325,73.6496644 52.875,74.093 C53.0476675,74.5363355 53.134,75.0426638 53.134,75.612 C53.134,76.1720028 53.0476675,76.6736644 52.875,77.117 C52.7023325,77.5603355 52.4713348,77.9336651 52.182,78.237 C51.8926652,78.5403348 51.5590019,78.7713325 51.181,78.93 C50.8029981,79.0886675 50.4040021,79.168 49.984,79.168 Z M49.984,78.216 C50.2733348,78.216 50.5393321,78.1530006 50.782,78.027 C51.0246679,77.9009994 51.2323325,77.7236678 51.405,77.495 C51.5776675,77.2663322 51.7106662,76.9933349 51.804,76.676 C51.8973338,76.3586651 51.944,76.004002 51.944,75.612 C51.944,75.219998 51.8973338,74.8630016 51.804,74.541 C51.7106662,74.2189984 51.5776675,73.9413345 51.405,73.708 C51.2323325,73.4746655 51.0246679,73.2950006 50.782,73.169 C50.5393321,73.0429994 50.2733348,72.98 49.984,72.98 C49.6946652,72.98 49.4286679,73.0429994 49.186,73.169 C48.9433321,73.2950006 48.7356675,73.4746655 48.563,73.708 C48.3903325,73.9413345 48.2573338,74.2189984 48.164,74.541 C48.0706662,74.8630016 48.024,75.219998 48.024,75.612 C48.024,76.004002 48.0706662,76.3586651 48.164,76.676 C48.2573338,76.9933349 48.3903325,77.2663322 48.563,77.495 C48.7356675,77.7236678 48.9433321,77.9009994 49.186,78.027 C49.4286679,78.1530006 49.6946652,78.216 49.984,78.216 Z M54.534,79.168 C54.4033327,79.168 54.2936671,79.1586668 54.205,79.14 C54.1163329,79.1213332 54.0206672,79.0933335 53.918,79.056 L54.142,77.992 C54.1886669,78.0106668 54.2353331,78.0246666 54.282,78.034 C54.3286669,78.0433334 54.3846663,78.048 54.45,78.048 C54.6926679,78.048 54.8886659,77.9336678 55.038,77.705 C55.1873341,77.4763322 55.2946663,77.1100025 55.36,76.606 C55.4533338,75.868663 55.5419996,75.1336703 55.626,74.401 C55.7100004,73.6683297 55.7939996,72.933337 55.878,72.196 L60.064,72.196 L60.064,79 L58.902,79 L58.902,73.134 L56.788,73.134 C56.713333,73.7593365 56.638667,74.3869969 56.564,75.017 C56.489333,75.6470031 56.414667,76.2746635 56.34,76.9 C56.143999,78.4120076 55.542005,79.168 54.534,79.168 Z M65.006,79.168 C64.5859979,79.168 64.1870019,79.0886675 63.809,78.93 C63.4309981,78.7713325 63.0973348,78.5403348 62.808,78.237 C62.5186652,77.9336651 62.2876675,77.5603355 62.115,77.117 C61.9423325,76.6736644 61.856,76.1720028 61.856,75.612 C61.856,75.0426638 61.9423325,74.5363355 62.115,74.093 C62.2876675,73.6496644 62.5186652,73.2740015 62.808,72.966 C63.0973348,72.6579985 63.4309981,72.4246675 63.809,72.266 C64.1870019,72.1073325 64.5859979,72.028 65.006,72.028 C65.4260021,72.028 65.8249981,72.1073325 66.203,72.266 C66.5810019,72.4246675 66.9146652,72.6579985 67.204,72.966 C67.4933348,73.2740015 67.7243325,73.6496644 67.897,74.093 C68.0696675,74.5363355 68.156,75.0426638 68.156,75.612 C68.156,76.1720028 68.0696675,76.6736644 67.897,77.117 C67.7243325,77.5603355 67.4933348,77.9336651 67.204,78.237 C66.9146652,78.5403348 66.5810019,78.7713325 66.203,78.93 C65.8249981,79.0886675 65.4260021,79.168 65.006,79.168 Z M65.006,78.216 C65.2953348,78.216 65.5613321,78.1530006 65.804,78.027 C66.0466679,77.9009994 66.2543325,77.7236678 66.427,77.495 C66.5996675,77.2663322 66.7326662,76.9933349 66.826,76.676 C66.9193338,76.3586651 66.966,76.004002 66.966,75.612 C66.966,75.219998 66.9193338,74.8630016 66.826,74.541 C66.7326662,74.2189984 66.5996675,73.9413345 66.427,73.708 C66.2543325,73.4746655 66.0466679,73.2950006 65.804,73.169 C65.5613321,73.0429994 65.2953348,72.98 65.006,72.98 C64.7166652,72.98 64.4506679,73.0429994 64.208,73.169 C63.9653321,73.2950006 63.7576675,73.4746655 63.585,73.708 C63.4123325,73.9413345 63.2793338,74.2189984 63.186,74.541 C63.0926662,74.8630016 63.046,75.219998 63.046,75.612 C63.046,76.004002 63.0926662,76.3586651 63.186,76.676 C63.2793338,76.9933349 63.4123325,77.2663322 63.585,77.495 C63.7576675,77.7236678 63.9653321,77.9009994 64.208,78.027 C64.4506679,78.1530006 64.7166652,78.216 65.006,78.216 Z M69.948,72.196 L71.278,72.196 L72.608,75.388 C72.7106672,75.6680014 72.8133328,75.9456653 72.916,76.221 C73.0186672,76.4963347 73.1213328,76.769332 73.224,77.04 L73.28,77.04 C73.3826672,76.769332 73.4876661,76.4963347 73.595,76.221 C73.7023339,75.9456653 73.8026662,75.6680014 73.896,75.388 L75.198,72.196 L76.514,72.196 L76.514,79 L75.464,79 L75.464,75.948 C75.464,75.7986659 75.4686666,75.6236677 75.478,75.423 C75.4873334,75.2223323 75.4989999,75.0170011 75.513,74.807 L75.555,74.177 C75.5690001,73.966999 75.5853332,73.7733342 75.604,73.596 L75.548,73.596 C75.4453328,73.866668 75.3403339,74.1396653 75.233,74.415 C75.1256661,74.6903347 75.0206672,74.9539987 74.918,75.206 L73.63,78.356 L72.86,78.356 L71.544,75.206 C71.4413328,74.9539987 71.3363339,74.6903347 71.229,74.415 C71.1216661,74.1396653 71.0166672,73.866668 70.914,73.596 L70.858,73.596 C70.8673334,73.7733342 70.8789999,73.966999 70.893,74.177 L70.935,74.807 C70.9490001,75.0170011 70.9606666,75.2223323 70.97,75.423 C70.9793334,75.6236677 70.984,75.7986659 70.984,75.948 L70.984,79 L69.948,79 L69.948,72.196 Z M81.498,79.168 C81.0499978,79.168 80.630002,79.0886675 80.238,78.93 C79.845998,78.7713325 79.5076681,78.5403348 79.223,78.237 C78.9383319,77.9336651 78.7143341,77.5603355 78.551,77.117 C78.3876659,76.6736644 78.306,76.1720028 78.306,75.612 C78.306,75.0426638 78.3946658,74.5363355 78.572,74.093 C78.7493342,73.6496644 78.9873318,73.2740015 79.286,72.966 C79.5846682,72.6579985 79.9323313,72.4246675 80.329,72.266 C80.7256687,72.1073325 81.1433311,72.028 81.582,72.028 C82.0300022,72.028 82.4126651,72.1073325 82.73,72.266 C83.0473349,72.4246675 83.3273321,72.6113323 83.57,72.826 L82.982,73.582 C82.785999,73.4046658 82.5783344,73.2600006 82.359,73.148 C82.1396656,73.0359994 81.894668,72.98 81.624,72.98 C81.3159985,72.98 81.0313346,73.0429994 80.77,73.169 C80.5086654,73.2950006 80.2846676,73.4746655 80.098,73.708 C79.9113324,73.9413345 79.7643339,74.2189984 79.657,74.541 C79.5496661,74.8630016 79.496,75.219998 79.496,75.612 C79.496,76.004002 79.5473328,76.3586651 79.65,76.676 C79.7526672,76.9933349 79.8949991,77.2663322 80.077,77.495 C80.2590009,77.7236678 80.4806654,77.9009994 80.742,78.027 C81.0033346,78.1530006 81.2879985,78.216 81.596,78.216 C81.9133349,78.216 82.2049987,78.148334 82.471,78.013 C82.7370013,77.877666 82.9773323,77.7166676 83.192,77.53 L83.696,78.3 C83.3879985,78.570668 83.0473352,78.7829992 82.674,78.937 C82.3006648,79.0910008 81.9086687,79.168 81.498,79.168 Z M86.692,73.134 L84.41,73.134 L84.41,72.196 L90.122,72.196 L90.122,73.134 L87.84,73.134 L87.84,79 L86.692,79 L86.692,73.134 Z M91.634,72.196 L94.252,72.196 C94.6253352,72.196 94.9659985,72.2286663 95.274,72.294 C95.5820015,72.3593337 95.8456656,72.459666 96.065,72.595 C96.2843344,72.730334 96.4546661,72.9076656 96.576,73.127 C96.6973339,73.3463344 96.758,73.6099985 96.758,73.918 C96.758,74.3006686 96.6576677,74.6133321 96.457,74.856 C96.2563323,75.0986679 95.9786684,75.2713328 95.624,75.374 L95.624,75.416 C95.820001,75.4626669 96.0043325,75.5279996 96.177,75.612 C96.3496675,75.6960004 96.5013327,75.8033327 96.632,75.934 C96.7626673,76.0646673 96.865333,76.2233324 96.94,76.41 C97.014667,76.5966676 97.052,76.8113321 97.052,77.054 C97.052,77.3900017 96.984334,77.6793321 96.849,77.922 C96.713666,78.1646679 96.5270012,78.3676659 96.289,78.531 C96.0509988,78.6943342 95.7686683,78.813333 95.442,78.888 C95.1153317,78.962667 94.756002,79 94.364,79 L91.634,79 L91.634,72.196 Z M94.056,75.052 C94.6253362,75.052 95.0313321,74.9610009 95.274,74.779 C95.5166679,74.5969991 95.638,74.3473349 95.638,74.03 C95.638,73.7126651 95.5213345,73.4653342 95.288,73.288 C95.0546655,73.1106658 94.6720027,73.022 94.14,73.022 L92.768,73.022 L92.768,75.052 L94.056,75.052 Z M94.238,78.174 C94.7980028,78.174 95.2156653,78.0713344 95.491,77.866 C95.7663347,77.6606656 95.904,77.3666686 95.904,76.984 C95.904,76.6386649 95.7593348,76.368001 95.47,76.172 C95.1806652,75.975999 94.7466696,75.878 94.168,75.878 L92.768,75.878 L92.768,78.174 L94.238,78.174 Z M101.392,79.168 C100.971998,79.168 100.573002,79.0886675 100.195,78.93 C99.8169981,78.7713325 99.4833348,78.5403348 99.194,78.237 C98.9046652,77.9336651 98.6736675,77.5603355 98.501,77.117 C98.3283325,76.6736644 98.242,76.1720028 98.242,75.612 C98.242,75.0426638 98.3283325,74.5363355 98.501,74.093 C98.6736675,73.6496644 98.9046652,73.2740015 99.194,72.966 C99.4833348,72.6579985 99.8169981,72.4246675 100.195,72.266 C100.573002,72.1073325 100.971998,72.028 101.392,72.028 C101.812002,72.028 102.210998,72.1073325 102.589,72.266 C102.967002,72.4246675 103.300665,72.6579985 103.59,72.966 C103.879335,73.2740015 104.110332,73.6496644 104.283,74.093 C104.455668,74.5363355 104.542,75.0426638 104.542,75.612 C104.542,76.1720028 104.455668,76.6736644 104.283,77.117 C104.110332,77.5603355 103.879335,77.9336651 103.59,78.237 C103.300665,78.5403348 102.967002,78.7713325 102.589,78.93 C102.210998,79.0886675 101.812002,79.168 101.392,79.168 Z M101.392,78.216 C101.681335,78.216 101.947332,78.1530006 102.19,78.027 C102.432668,77.9009994 102.640332,77.7236678 102.813,77.495 C102.985668,77.2663322 103.118666,76.9933349 103.212,76.676 C103.305334,76.3586651 103.352,76.004002 103.352,75.612 C103.352,75.219998 103.305334,74.8630016 103.212,74.541 C103.118666,74.2189984 102.985668,73.9413345 102.813,73.708 C102.640332,73.4746655 102.432668,73.2950006 102.19,73.169 C101.947332,73.0429994 101.681335,72.98 101.392,72.98 C101.102665,72.98 100.836668,73.0429994 100.594,73.169 C100.351332,73.2950006 100.143668,73.4746655 99.971,73.708 C99.7983325,73.9413345 99.6653338,74.2189984 99.572,74.541 C99.4786662,74.8630016 99.432,75.219998 99.432,75.612 C99.432,76.004002 99.4786662,76.3586651 99.572,76.676 C99.6653338,76.9933349 99.7983325,77.2663322 99.971,77.495 C100.143668,77.7236678 100.351332,77.9009994 100.594,78.027 C100.836668,78.1530006 101.102665,78.216 101.392,78.216 Z M105.844,80.708 C106.236002,80.5306658 106.543999,80.2973348 106.768,80.008 C106.992001,79.7186652 107.104,79.3826686 107.104,79 C107.076,79.0093334 107.029334,79.014 106.964,79.014 C106.739999,79.014 106.546334,78.946334 106.383,78.811 C106.219666,78.675666 106.138,78.4773346 106.138,78.216 C106.138,77.9639987 106.221999,77.7656674 106.39,77.621 C106.558001,77.4763326 106.758665,77.404 106.992,77.404 C107.290668,77.404 107.526332,77.5253321 107.699,77.768 C107.871668,78.0106679 107.958,78.3419979 107.958,78.762 C107.958,79.3686697 107.794668,79.8959978 107.468,80.344 C107.141332,80.7920022 106.693336,81.1373321 106.124,81.38 L105.844,80.708 Z M118.262,79 L117.002,79 L115.112,75.934 L113.768,75.934 L113.768,79 L112.62,79 L112.62,72.196 L113.768,72.196 L113.768,74.996 L115.084,74.996 L115.756,73.484 C115.886667,73.1853318 116.017333,72.9426676 116.148,72.756 C116.278667,72.5693324 116.418666,72.4223339 116.568,72.315 C116.717334,72.2076661 116.871333,72.1330002 117.03,72.091 C117.188667,72.0489998 117.361332,72.028 117.548,72.028 C117.697334,72.028 117.827999,72.0513331 117.94,72.098 L117.744,73.176 C117.697333,73.1573332 117.66,73.148 117.632,73.148 L117.52,73.148 C117.426666,73.148 117.340334,73.1596665 117.261,73.183 C117.181666,73.2063334 117.102334,73.2506663 117.023,73.316 C116.943666,73.3813337 116.862,73.4746661 116.778,73.596 C116.694,73.7173339 116.61,73.875999 116.526,74.072 L115.952,75.416 L118.262,79 Z M122.238,79.168 C121.817998,79.168 121.419002,79.0886675 121.041,78.93 C120.662998,78.7713325 120.329335,78.5403348 120.04,78.237 C119.750665,77.9336651 119.519668,77.5603355 119.347,77.117 C119.174332,76.6736644 119.088,76.1720028 119.088,75.612 C119.088,75.0426638 119.174332,74.5363355 119.347,74.093 C119.519668,73.6496644 119.750665,73.2740015 120.04,72.966 C120.329335,72.6579985 120.662998,72.4246675 121.041,72.266 C121.419002,72.1073325 121.817998,72.028 122.238,72.028 C122.658002,72.028 123.056998,72.1073325 123.435,72.266 C123.813002,72.4246675 124.146665,72.6579985 124.436,72.966 C124.725335,73.2740015 124.956332,73.6496644 125.129,74.093 C125.301668,74.5363355 125.388,75.0426638 125.388,75.612 C125.388,76.1720028 125.301668,76.6736644 125.129,77.117 C124.956332,77.5603355 124.725335,77.9336651 124.436,78.237 C124.146665,78.5403348 123.813002,78.7713325 123.435,78.93 C123.056998,79.0886675 122.658002,79.168 122.238,79.168 Z M122.238,78.216 C122.527335,78.216 122.793332,78.1530006 123.036,78.027 C123.278668,77.9009994 123.486332,77.7236678 123.659,77.495 C123.831668,77.2663322 123.964666,76.9933349 124.058,76.676 C124.151334,76.3586651 124.198,76.004002 124.198,75.612 C124.198,75.219998 124.151334,74.8630016 124.058,74.541 C123.964666,74.2189984 123.831668,73.9413345 123.659,73.708 C123.486332,73.4746655 123.278668,73.2950006 123.036,73.169 C122.793332,73.0429994 122.527335,72.98 122.238,72.98 C121.948665,72.98 121.682668,73.0429994 121.44,73.169 C121.197332,73.2950006 120.989668,73.4746655 120.817,73.708 C120.644332,73.9413345 120.511334,74.2189984 120.418,74.541 C120.324666,74.8630016 120.278,75.219998 120.278,75.612 C120.278,76.004002 120.324666,76.3586651 120.418,76.676 C120.511334,76.9933349 120.644332,77.2663322 120.817,77.495 C120.989668,77.7236678 121.197332,77.9009994 121.44,78.027 C121.682668,78.1530006 121.948665,78.216 122.238,78.216 Z M127.18,72.196 L129.798,72.196 C130.171335,72.196 130.511998,72.2286663 130.82,72.294 C131.128002,72.3593337 131.391666,72.459666 131.611,72.595 C131.830334,72.730334 132.000666,72.9076656 132.122,73.127 C132.243334,73.3463344 132.304,73.6099985 132.304,73.918 C132.304,74.3006686 132.203668,74.6133321 132.003,74.856 C131.802332,75.0986679 131.524668,75.2713328 131.17,75.374 L131.17,75.416 C131.366001,75.4626669 131.550332,75.5279996 131.723,75.612 C131.895668,75.6960004 132.047333,75.8033327 132.178,75.934 C132.308667,76.0646673 132.411333,76.2233324 132.486,76.41 C132.560667,76.5966676 132.598,76.8113321 132.598,77.054 C132.598,77.3900017 132.530334,77.6793321 132.395,77.922 C132.259666,78.1646679 132.073001,78.3676659 131.835,78.531 C131.596999,78.6943342 131.314668,78.813333 130.988,78.888 C130.661332,78.962667 130.302002,79 129.91,79 L127.18,79 L127.18,72.196 Z M129.602,75.052 C130.171336,75.052 130.577332,74.9610009 130.82,74.779 C131.062668,74.5969991 131.184,74.3473349 131.184,74.03 C131.184,73.7126651 131.067334,73.4653342 130.834,73.288 C130.600666,73.1106658 130.218003,73.022 129.686,73.022 L128.314,73.022 L128.314,75.052 L129.602,75.052 Z M129.784,78.174 C130.344003,78.174 130.761665,78.0713344 131.037,77.866 C131.312335,77.6606656 131.45,77.3666686 131.45,76.984 C131.45,76.6386649 131.305335,76.368001 131.016,76.172 C130.726665,75.975999 130.29267,75.878 129.714,75.878 L128.314,75.878 L128.314,78.174 L129.784,78.174 Z M135.86,79.168 C135.290664,79.168 134.817002,79.0000017 134.439,78.664 C134.060998,78.3279983 133.872,77.8520031 133.872,77.236 C133.872,76.4893296 134.20333,75.9176686 134.866,75.521 C135.52867,75.1243314 136.587993,74.8466675 138.044,74.688 C138.044,74.4733323 138.023,74.2633344 137.981,74.058 C137.939,73.8526656 137.866667,73.6706675 137.764,73.512 C137.661333,73.3533325 137.519001,73.2250005 137.337,73.127 C137.154999,73.0289995 136.924001,72.98 136.644,72.98 C136.251998,72.98 135.883335,73.0546659 135.538,73.204 C135.192665,73.3533341 134.884668,73.5213324 134.614,73.708 L134.166,72.91 C134.483335,72.7046656 134.870664,72.5063343 135.328,72.315 C135.785336,72.1236657 136.289331,72.028 136.84,72.028 C137.670671,72.028 138.272665,72.2823308 138.646,72.791 C139.019335,73.2996692 139.206,73.9786624 139.206,74.828 L139.206,79 L138.254,79 L138.156,78.188 L138.114,78.188 C137.787332,78.458668 137.437335,78.6896657 137.064,78.881 C136.690665,79.0723343 136.289335,79.168 135.86,79.168 Z M136.196,78.244 C136.522668,78.244 136.830665,78.1670008 137.12,78.013 C137.409335,77.8589992 137.717332,77.6326682 138.044,77.334 L138.044,75.444 C137.474664,75.518667 136.996335,75.6073328 136.609,75.71 C136.221665,75.8126672 135.909001,75.9339993 135.671,76.074 C135.432999,76.2140007 135.260334,76.3749991 135.153,76.557 C135.045666,76.7390009 134.992,76.9373323 134.992,77.152 C134.992,77.544002 135.108665,77.8239992 135.342,77.992 C135.575335,78.1600008 135.859998,78.244 136.196,78.244 Z M141.348,72.196 L142.3,72.196 L142.398,72.98 L142.44,72.98 C142.748002,72.7186654 143.086331,72.4946676 143.455,72.308 C143.823669,72.1213324 144.208665,72.028 144.61,72.028 C145.048669,72.028 145.435998,72.1096658 145.772,72.273 C146.108002,72.4363341 146.387999,72.6696652 146.612,72.973 C146.836001,73.2763349 147.006333,73.6403312 147.123,74.065 C147.239667,74.4896688 147.298,74.9679973 147.298,75.5 C147.298,76.0786696 147.218667,76.5943311 147.06,77.047 C146.901333,77.4996689 146.686668,77.8846651 146.416,78.202 C146.145332,78.5193349 145.832668,78.7596659 145.478,78.923 C145.123332,79.0863341 144.750002,79.168 144.358,79.168 C144.040665,79.168 143.725668,79.0980007 143.413,78.958 C143.100332,78.8179993 142.785335,78.6266679 142.468,78.384 L142.496,79.574 L142.496,81.87 L141.348,81.87 L141.348,72.196 Z M144.162,78.202 C144.442001,78.202 144.700999,78.1390006 144.939,78.013 C145.177001,77.8869994 145.382332,77.7096678 145.555,77.481 C145.727668,77.2523322 145.863,76.9700017 145.961,76.634 C146.059,76.2979983 146.108,75.9200021 146.108,75.5 C146.108,75.1266648 146.075334,74.7860015 146.01,74.478 C145.944666,74.1699985 145.839667,73.9063344 145.695,73.687 C145.550333,73.4676656 145.363668,73.2973339 145.135,73.176 C144.906332,73.0546661 144.633335,72.994 144.316,72.994 C144.026665,72.994 143.735001,73.0733325 143.441,73.232 C143.146999,73.3906675 142.832002,73.6193318 142.496,73.918 L142.496,77.488 C142.804002,77.7493346 143.102665,77.9336661 143.392,78.041 C143.681335,78.1483339 143.937999,78.202 144.162,78.202 Z M151.806,79.168 C151.357998,79.168 150.938002,79.0886675 150.546,78.93 C150.153998,78.7713325 149.815668,78.5403348 149.531,78.237 C149.246332,77.9336651 149.022334,77.5603355 148.859,77.117 C148.695666,76.6736644 148.614,76.1720028 148.614,75.612 C148.614,75.0426638 148.702666,74.5363355 148.88,74.093 C149.057334,73.6496644 149.295332,73.2740015 149.594,72.966 C149.892668,72.6579985 150.240331,72.4246675 150.637,72.266 C151.033669,72.1073325 151.451331,72.028 151.89,72.028 C152.338002,72.028 152.720665,72.1073325 153.038,72.266 C153.355335,72.4246675 153.635332,72.6113323 153.878,72.826 L153.29,73.582 C153.093999,73.4046658 152.886334,73.2600006 152.667,73.148 C152.447666,73.0359994 152.202668,72.98 151.932,72.98 C151.623998,72.98 151.339335,73.0429994 151.078,73.169 C150.816665,73.2950006 150.592668,73.4746655 150.406,73.708 C150.219332,73.9413345 150.072334,74.2189984 149.965,74.541 C149.857666,74.8630016 149.804,75.219998 149.804,75.612 C149.804,76.004002 149.855333,76.3586651 149.958,76.676 C150.060667,76.9933349 150.202999,77.2663322 150.385,77.495 C150.567001,77.7236678 150.788665,77.9009994 151.05,78.027 C151.311335,78.1530006 151.595998,78.216 151.904,78.216 C152.221335,78.216 152.512999,78.148334 152.779,78.013 C153.045001,77.877666 153.285332,77.7166676 153.5,77.53 L154.004,78.3 C153.695998,78.570668 153.355335,78.7829992 152.982,78.937 C152.608665,79.0910008 152.216669,79.168 151.806,79.168 Z M157,73.134 L154.718,73.134 L154.718,72.196 L160.43,72.196 L160.43,73.134 L158.148,73.134 L158.148,79 L157,79 L157,73.134 Z M161.942,72.196 L164.56,72.196 C164.933335,72.196 165.273998,72.2286663 165.582,72.294 C165.890002,72.3593337 166.153666,72.459666 166.373,72.595 C166.592334,72.730334 166.762666,72.9076656 166.884,73.127 C167.005334,73.3463344 167.066,73.6099985 167.066,73.918 C167.066,74.3006686 166.965668,74.6133321 166.765,74.856 C166.564332,75.0986679 166.286668,75.2713328 165.932,75.374 L165.932,75.416 C166.128001,75.4626669 166.312332,75.5279996 166.485,75.612 C166.657668,75.6960004 166.809333,75.8033327 166.94,75.934 C167.070667,76.0646673 167.173333,76.2233324 167.248,76.41 C167.322667,76.5966676 167.36,76.8113321 167.36,77.054 C167.36,77.3900017 167.292334,77.6793321 167.157,77.922 C167.021666,78.1646679 166.835001,78.3676659 166.597,78.531 C166.358999,78.6943342 166.076668,78.813333 165.75,78.888 C165.423332,78.962667 165.064002,79 164.672,79 L161.942,79 L161.942,72.196 Z M164.364,75.052 C164.933336,75.052 165.339332,74.9610009 165.582,74.779 C165.824668,74.5969991 165.946,74.3473349 165.946,74.03 C165.946,73.7126651 165.829335,73.4653342 165.596,73.288 C165.362665,73.1106658 164.980003,73.022 164.448,73.022 L163.076,73.022 L163.076,75.052 L164.364,75.052 Z M164.546,78.174 C165.106003,78.174 165.523665,78.0713344 165.799,77.866 C166.074335,77.6606656 166.212,77.3666686 166.212,76.984 C166.212,76.6386649 166.067335,76.368001 165.778,76.172 C165.488665,75.975999 165.05467,75.878 164.476,75.878 L163.076,75.878 L163.076,78.174 L164.546,78.174 Z M171.7,79.168 C171.279998,79.168 170.881002,79.0886675 170.503,78.93 C170.124998,78.7713325 169.791335,78.5403348 169.502,78.237 C169.212665,77.9336651 168.981668,77.5603355 168.809,77.117 C168.636332,76.6736644 168.55,76.1720028 168.55,75.612 C168.55,75.0426638 168.636332,74.5363355 168.809,74.093 C168.981668,73.6496644 169.212665,73.2740015 169.502,72.966 C169.791335,72.6579985 170.124998,72.4246675 170.503,72.266 C170.881002,72.1073325 171.279998,72.028 171.7,72.028 C172.120002,72.028 172.518998,72.1073325 172.897,72.266 C173.275002,72.4246675 173.608665,72.6579985 173.898,72.966 C174.187335,73.2740015 174.418332,73.6496644 174.591,74.093 C174.763668,74.5363355 174.85,75.0426638 174.85,75.612 C174.85,76.1720028 174.763668,76.6736644 174.591,77.117 C174.418332,77.5603355 174.187335,77.9336651 173.898,78.237 C173.608665,78.5403348 173.275002,78.7713325 172.897,78.93 C172.518998,79.0886675 172.120002,79.168 171.7,79.168 Z M171.7,78.216 C171.989335,78.216 172.255332,78.1530006 172.498,78.027 C172.740668,77.9009994 172.948332,77.7236678 173.121,77.495 C173.293668,77.2663322 173.426666,76.9933349 173.52,76.676 C173.613334,76.3586651 173.66,76.004002 173.66,75.612 C173.66,75.219998 173.613334,74.8630016 173.52,74.541 C173.426666,74.2189984 173.293668,73.9413345 173.121,73.708 C172.948332,73.4746655 172.740668,73.2950006 172.498,73.169 C172.255332,73.0429994 171.989335,72.98 171.7,72.98 C171.410665,72.98 171.144668,73.0429994 170.902,73.169 C170.659332,73.2950006 170.451668,73.4746655 170.279,73.708 C170.106332,73.9413345 169.973334,74.2189984 169.88,74.541 C169.786666,74.8630016 169.74,75.219998 169.74,75.612 C169.74,76.004002 169.786666,76.3586651 169.88,76.676 C169.973334,76.9933349 170.106332,77.2663322 170.279,77.495 C170.451668,77.7236678 170.659332,77.9009994 170.902,78.027 C171.144668,78.1530006 171.410665,78.216 171.7,78.216 Z" id="1.-,-" fill="#353441"></path>
            <path d="M45.977,119 L51.409,119 L51.409,121.632 L52.851,121.632 L53.005,118.636 L53.005,117.628 L51.927,117.628 L51.927,109.844 L46.887,109.844 C46.579,111.692 46.425,112.7 46.103,114.408 C45.655,116.718 45.207,117.488 44.801,117.628 L44.381,117.628 L44.381,118.636 L44.535,121.632 L45.977,121.632 L45.977,119 Z M47.559,114.632 C47.811,113.302 47.909,112.532 48.147,111.216 L50.303,111.216 L50.303,117.628 L46.579,117.628 C46.985,116.97 47.307,115.99 47.559,114.632 Z M57.107,119.168 C58.829,119.168 60.383,117.852 60.383,115.57 C60.383,113.274 58.829,111.958 57.107,111.958 C55.399,111.958 53.845,113.274 53.845,115.57 C53.845,117.852 55.399,119.168 57.107,119.168 Z M57.107,117.852 C56.099,117.852 55.497,116.942 55.497,115.57 C55.497,114.184 56.099,113.274 57.107,113.274 C58.115,113.274 58.731,114.184 58.731,115.57 C58.731,116.942 58.115,117.852 57.107,117.852 Z M64.947,119.168 C66.711,119.168 68.069,117.768 68.069,115.626 C68.069,113.568 66.907,112.42 65.367,112.42 C64.555,112.42 63.771,112.756 63.225,113.414 C63.435,111.104 64.205,110.978 66.277,110.684 C66.879,110.6 67.439,110.46 67.803,110.208 L67.481,108.78 C67.061,108.976 66.753,109.06 65.941,109.172 C63.365,109.55 61.629,110.376 61.629,114.772 C61.629,117.558 62.833,119.168 64.947,119.168 Z M64.933,117.852 C63.785,117.852 63.169,116.9 63.169,115.122 L63.169,114.66 C63.715,113.89 64.345,113.638 64.919,113.638 C65.871,113.638 66.417,114.296 66.417,115.626 C66.417,116.97 65.829,117.852 64.933,117.852 Z M71.387,119.168 C72.199,119.168 72.899,118.762 73.515,118.244 L73.571,118.244 L73.683,119 L75.013,119 L75.013,114.926 C75.013,113.008 74.159,111.958 72.451,111.958 C71.359,111.958 70.379,112.378 69.623,112.854 L70.211,113.932 C70.827,113.568 71.471,113.26 72.143,113.26 C73.081,113.26 73.375,113.876 73.403,114.604 C70.575,114.912 69.357,115.682 69.357,117.152 C69.357,118.356 70.183,119.168 71.387,119.168 Z M71.905,117.908 C71.331,117.908 70.911,117.642 70.911,117.026 C70.911,116.34 71.527,115.85 73.403,115.612 L73.403,117.152 C72.885,117.628 72.465,117.908 71.905,117.908 Z M76.945,119 L79.871,119 C81.453,119 82.671,118.412 82.671,117.026 C82.671,116.074 82.055,115.598 81.243,115.402 L81.243,115.346 C81.999,115.122 82.391,114.576 82.391,113.904 C82.391,112.588 81.257,112.126 79.731,112.126 L76.945,112.126 L76.945,119 Z M78.527,114.912 L78.527,113.218 L79.619,113.218 C80.487,113.218 80.837,113.54 80.837,114.072 C80.837,114.59 80.473,114.912 79.577,114.912 L78.527,114.912 Z M78.527,117.908 L78.527,116.004 L79.703,116.004 C80.641,116.004 81.089,116.368 81.089,116.928 C81.089,117.53 80.683,117.908 79.759,117.908 L78.527,117.908 Z M84.197,119 L85.681,119 L87.865,115.598 C88.103,115.192 88.481,114.562 88.719,114.142 L88.775,114.142 C88.705,115.01 88.621,115.92 88.621,116.634 L88.621,119 L90.189,119 L90.189,112.126 L88.705,112.126 L86.521,115.528 C86.297,115.934 85.905,116.564 85.667,116.984 L85.625,116.984 C85.681,116.116 85.765,115.206 85.765,114.492 L85.765,112.126 L84.197,112.126 L84.197,119 Z M93.731,119 L95.355,119 L95.355,113.4 L97.511,113.4 L97.511,112.126 L91.575,112.126 L91.575,113.4 L93.731,113.4 L93.731,119 Z M98.897,119 L101.543,119 C103.195,119 104.385,118.37 104.385,116.718 C104.385,115.108 103.195,114.478 101.543,114.478 L100.507,114.478 L100.507,112.126 L98.897,112.126 L98.897,119 Z M100.507,117.754 L100.507,115.696 L101.431,115.696 C102.369,115.696 102.831,116.018 102.831,116.704 C102.831,117.418 102.369,117.754 101.431,117.754 L100.507,117.754 Z M108.753,119 L111.679,119 C113.261,119 114.479,118.412 114.479,117.026 C114.479,116.074 113.863,115.598 113.051,115.402 L113.051,115.346 C113.807,115.122 114.199,114.576 114.199,113.904 C114.199,112.588 113.065,112.126 111.539,112.126 L108.753,112.126 L108.753,119 Z M110.335,114.912 L110.335,113.218 L111.427,113.218 C112.295,113.218 112.645,113.54 112.645,114.072 C112.645,114.59 112.281,114.912 111.385,114.912 L110.335,114.912 Z M110.335,117.908 L110.335,116.004 L111.511,116.004 C112.449,116.004 112.897,116.368 112.897,116.928 C112.897,117.53 112.491,117.908 111.567,117.908 L110.335,117.908 Z M118.259,119 L123.635,119 L123.635,117.712 L120.289,117.712 L123.523,112.98 L123.523,112.126 L118.623,112.126 L118.623,113.4 L121.507,113.4 L118.259,118.132 L118.259,119 Z M126.673,119.168 C127.485,119.168 128.185,118.762 128.801,118.244 L128.857,118.244 L128.969,119 L130.299,119 L130.299,114.926 C130.299,113.008 129.445,111.958 127.737,111.958 C126.645,111.958 125.665,112.378 124.909,112.854 L125.497,113.932 C126.113,113.568 126.757,113.26 127.429,113.26 C128.367,113.26 128.661,113.876 128.689,114.604 C125.861,114.912 124.643,115.682 124.643,117.152 C124.643,118.356 125.469,119.168 126.673,119.168 Z M127.191,117.908 C126.617,117.908 126.197,117.642 126.197,117.026 C126.197,116.34 126.813,115.85 128.689,115.612 L128.689,117.152 C128.171,117.628 127.751,117.908 127.191,117.908 Z M135.563,119.168 C137.089,119.168 138.503,117.81 138.503,115.444 C138.503,113.33 137.509,111.958 135.787,111.958 C135.087,111.958 134.373,112.308 133.799,112.812 L133.841,111.664 L133.841,109.116 L132.231,109.116 L132.231,119 L133.505,119 L133.645,118.272 L133.687,118.272 C134.261,118.846 134.933,119.168 135.563,119.168 Z M135.227,117.838 C134.821,117.838 134.331,117.684 133.841,117.264 L133.841,114.058 C134.373,113.54 134.849,113.288 135.353,113.288 C136.389,113.288 136.837,114.1 136.837,115.472 C136.837,117.026 136.137,117.838 135.227,117.838 Z M141.681,119.168 C142.059,119.168 142.339,119.112 142.535,119.028 L142.325,117.824 C142.199,117.852 142.143,117.852 142.073,117.852 C141.905,117.852 141.723,117.712 141.723,117.32 L141.723,109.116 L140.113,109.116 L140.113,117.236 C140.113,118.426 140.533,119.168 141.681,119.168 Z" id="--zabl" fill="#498AFE"></path>
            <rect id="Rectangle" fill="#CFDBF3" x="0" y="94" width="186" height="1"></rect>
            <path d="M11.106,56.048 L13.15,56.048 L13.15,49.468 L11.526,49.468 L11.526,48.726 C11.9366687,48.651333 12.2936652,48.5603339 12.597,48.453 C12.9003349,48.3456661 13.1733321,48.2173341 13.416,48.068 L14.298,48.068 L14.298,56.048 L16.146,56.048 L16.146,57 L11.106,57 L11.106,56.048 Z" id="Path" fill="#D8D8D8"></path>
            <path d="M18.708,57.168 C18.4746655,57.168 18.2763342,57.0863341 18.113,56.923 C17.9496659,56.7596659 17.868,56.5520013 17.868,56.3 C17.868,56.029332 17.9496659,55.8123341 18.113,55.649 C18.2763342,55.4856659 18.4746655,55.404 18.708,55.404 C18.9320011,55.404 19.1256658,55.4856659 19.289,55.649 C19.4523341,55.8123341 19.534,56.029332 19.534,56.3 C19.534,56.5520013 19.4523341,56.7596659 19.289,56.923 C19.1256658,57.0863341 18.9320011,57.168 18.708,57.168 Z" id="Path" fill="#D8D8D8"></path>
            <path d="M10.56,78.314 C11.2320034,77.6419966 11.8293307,77.035336 12.352,76.494 C12.8746693,75.952664 13.3133316,75.4510023 13.668,74.989 C14.0226684,74.5269977 14.2933324,74.1023353 14.48,73.715 C14.6666676,73.3276647 14.76,72.9520018 14.76,72.588 C14.76,72.0746641 14.6200014,71.6546683 14.34,71.328 C14.0599986,71.0013317 13.6353362,70.838 13.066,70.838 C12.6926648,70.838 12.3473349,70.942999 12.03,71.153 C11.7126651,71.3630011 11.4233346,71.6173318 11.162,71.916 L10.504,71.258 C10.8773352,70.8473313 11.2739979,70.5183346 11.694,70.271 C12.1140021,70.0236654 12.6179971,69.9 13.206,69.9 C14.0366708,69.9 14.6899976,70.1403309 15.166,70.621 C15.6420024,71.1016691 15.88,71.7386627 15.88,72.532 C15.88,72.9520021 15.7890009,73.3743312 15.607,73.799 C15.4249991,74.2236688 15.1730016,74.6623311 14.851,75.115 C14.5289984,75.5676689 14.1463356,76.0389976 13.703,76.529 C13.2596644,77.0190025 12.7720027,77.5393306 12.24,78.09 C12.4826679,78.0713332 12.7346654,78.0526668 12.996,78.034 C13.2573346,78.0153332 13.5046655,78.006 13.738,78.006 L16.328,78.006 L16.328,79 L10.56,79 L10.56,78.314 Z" id="Path" fill="#D8D8D8"></path>
            <path d="M18.708,79.168 C18.4746655,79.168 18.2763342,79.0863341 18.113,78.923 C17.9496659,78.7596659 17.868,78.5520013 17.868,78.3 C17.868,78.029332 17.9496659,77.8123341 18.113,77.649 C18.2763342,77.4856659 18.4746655,77.404 18.708,77.404 C18.9320011,77.404 19.1256658,77.4856659 19.289,77.649 C19.4523341,77.8123341 19.534,78.029332 19.534,78.3 C19.534,78.5520013 19.4523341,78.7596659 19.289,78.923 C19.1256658,79.0863341 18.9320011,79.168 18.708,79.168 Z" id="Path" fill="#D8D8D8"></path>
        </g>
    </g>
</svg>