<?xml version="1.0" encoding="UTF-8" standalone="no"?>
<svg width="256px" height="215px" viewBox="0 0 256 215" version="1.1" xmlns="http://www.w3.org/2000/svg" xmlns:xlink="http://www.w3.org/1999/xlink">
    <!-- Generator: Sketch 41.2 (35397) - http://www.bohemiancoding.com/sketch -->
    <title>menu</title>
    <desc>Created with Sketch.</desc>
    <defs>
        <rect id="path-1" x="0" y="0" width="180" height="139" rx="5"></rect>
        <filter x="-50%" y="-50%" width="200%" height="200%" filterUnits="objectBoundingBox" id="filter-2">
            <feOffset dx="0" dy="3" in="SourceAlpha" result="shadowOffsetOuter1"></feOffset>
            <feGaussianBlur stdDeviation="4" in="shadowOffsetOuter1" result="shadowBlurOuter1"></feGaussianBlur>
            <feColorMatrix values="0 0 0 0 0.28627451   0 0 0 0 0.541176471   0 0 0 0 0.996078431  0 0 0 0.16 0" type="matrix" in="shadowBlurOuter1" result="shadowMatrixOuter1"></feColorMatrix>
            <feOffset dx="0" dy="14" in="SourceAlpha" result="shadowOffsetOuter2"></feOffset>
            <feGaussianBlur stdDeviation="19" in="shadowOffsetOuter2" result="shadowBlurOuter2"></feGaussianBlur>
            <feColorMatrix values="0 0 0 0 0.28627451   0 0 0 0 0.541176471   0 0 0 0 0.996078431  0 0 0 0.08 0" type="matrix" in="shadowBlurOuter2" result="shadowMatrixOuter2"></feColorMatrix>
            <feMerge>
                <feMergeNode in="shadowMatrixOuter1"></feMergeNode>
                <feMergeNode in="shadowMatrixOuter2"></feMergeNode>
            </feMerge>
        </filter>
    </defs>
    <g id="Site" stroke="none" stroke-width="1" fill="none" fill-rule="evenodd">
        <g id="menu" transform="translate(38.000000, 24.000000)">
            <g id="background">
                <use fill="black" fill-opacity="1" filter="url(#filter-2)" xlink:href="#path-1"></use>
                <use fill="#FFFFFF" fill-rule="evenodd" xlink:href="#path-1"></use>
            </g>
            <path d="M10,62.552359 L10,75.4407365 L13.9217491,75.4407365 L13.9217491,74.4649022 C14.6029919,75.2013809 15.5788262,75.7537399 16.7019563,75.7537399 C19.4269275,75.7537399 20.6052934,73.5627158 20.6052934,71.0218642 C20.6052934,68.4810127 19.4269275,66.2899885 16.7019563,66.2899885 C15.7629459,66.2899885 14.9896433,66.566168 14.4556962,67.0080552 L14.4556962,62.552359 L10,62.552359 Z M16.0023015,71.0218642 C16.0023015,71.6294591 15.7445339,72.2186421 15.1001151,72.2186421 C14.8239356,72.2186421 14.566168,72.0713464 14.4556962,71.9608746 L14.4556962,70.0828539 C14.547756,69.972382 14.8055236,69.8250863 15.1001151,69.8250863 C15.7445339,69.8250863 16.0023015,70.4142693 16.0023015,71.0218642 Z M21.5443038,62 L21.5443038,75.4407365 L26,75.4407365 L26,62 L21.5443038,62 Z" id="icon_blue" fill="#498AFE"></path>
            <path d="M36.62,63.192 L44.99,63.192 L44.99,75 L43.496,75 L43.496,64.452 L38.114,64.452 L38.114,75 L36.62,75 L36.62,63.192 Z M51.632,75.216 C51.0439971,75.216 50.4950025,75.111001 49.985,74.901 C49.4749974,74.6909989 49.0310019,74.391002 48.653,74.001 C48.2749981,73.6109981 47.9780011,73.1340028 47.762,72.57 C47.5459989,72.0059972 47.438,71.3640036 47.438,70.644 C47.438,69.9239964 47.5489989,69.2790029 47.771,68.709 C47.9930011,68.1389971 48.2869982,67.656002 48.653,67.26 C49.0190018,66.863998 49.4359977,66.5610011 49.904,66.351 C50.3720023,66.140999 50.8579975,66.036 51.362,66.036 C51.9140028,66.036 52.4089978,66.131999 52.847,66.324 C53.2850022,66.516001 53.6509985,66.7919982 53.945,67.152 C54.2390015,67.5120018 54.4639992,67.9439975 54.62,68.448 C54.7760008,68.9520025 54.854,69.5159969 54.854,70.14 C54.854,70.2960008 54.851,70.4489993 54.845,70.599 C54.839,70.7490007 54.8240001,70.8779995 54.8,70.986 L48.896,70.986 C48.9560003,71.9220047 49.2469974,72.6629973 49.769,73.209 C50.2910026,73.7550027 50.9719958,74.028 51.812,74.028 C52.2320021,74.028 52.6189982,73.9650006 52.973,73.839 C53.3270018,73.7129994 53.6659984,73.548001 53.99,73.344 L54.512,74.316 C54.1279981,74.5560012 53.7020023,74.7659991 53.234,74.946 C52.7659977,75.1260009 52.232003,75.216 51.632,75.216 Z M53.558,69.924 C53.558,69.0359956 53.3690019,68.3610023 52.991,67.899 C52.6129981,67.4369977 52.0820034,67.206 51.398,67.206 C51.0859984,67.206 50.7890014,67.2659994 50.507,67.386 C50.2249986,67.5060006 49.9700011,67.6829988 49.742,67.917 C49.5139989,68.1510012 49.3250007,68.4359983 49.175,68.772 C49.0249992,69.1080017 48.9260002,69.4919978 48.878,69.924 L53.558,69.924 Z M57.014,66.252 L58.238,66.252 L58.364,67.26 L58.418,67.26 C58.814002,66.9239983 59.2489976,66.6360012 59.723,66.396 C60.1970024,66.1559988 60.6919974,66.036 61.208,66.036 C61.7720028,66.036 62.2699978,66.140999 62.702,66.351 C63.1340022,66.5610011 63.4939986,66.8609981 63.782,67.251 C64.0700014,67.641002 64.2889992,68.1089973 64.439,68.655 C64.5890007,69.2010027 64.664,69.8159966 64.664,70.5 C64.664,71.2440037 64.562001,71.9069971 64.358,72.489 C64.153999,73.0710029 63.8780017,73.565998 63.53,73.974 C63.1819983,74.382002 62.7800023,74.6909989 62.324,74.901 C61.8679977,75.111001 61.3880025,75.216 60.884,75.216 C60.475998,75.216 60.071002,75.1260009 59.669,74.946 C59.266998,74.7659991 58.862002,74.5200016 58.454,74.208 L58.49,75.738 L58.49,78.69 L57.014,78.69 L57.014,66.252 Z M60.632,73.974 C60.9920018,73.974 61.3249985,73.8930008 61.631,73.731 C61.9370015,73.5689992 62.2009989,73.3410015 62.423,73.047 C62.6450011,72.7529985 62.8189994,72.3900022 62.945,71.958 C63.0710006,71.5259978 63.134,71.0400027 63.134,70.5 C63.134,70.0199976 63.0920004,69.582002 63.008,69.186 C62.9239996,68.789998 62.7890009,68.4510014 62.603,68.169 C62.4169991,67.8869986 62.1770015,67.6680008 61.883,67.512 C61.5889985,67.3559992 61.238002,67.278 60.83,67.278 C60.4579981,67.278 60.0830019,67.379999 59.705,67.584 C59.3269981,67.788001 58.9220022,68.0819981 58.49,68.466 L58.49,73.056 C58.886002,73.3920017 59.2699981,73.6289993 59.642,73.767 C60.0140019,73.9050007 60.3439986,73.974 60.632,73.974 Z M70.55,75.216 C69.9619971,75.216 69.4130025,75.111001 68.903,74.901 C68.3929974,74.6909989 67.9490019,74.391002 67.571,74.001 C67.1929981,73.6109981 66.8960011,73.1340028 66.68,72.57 C66.4639989,72.0059972 66.356,71.3640036 66.356,70.644 C66.356,69.9239964 66.4669989,69.2790029 66.689,68.709 C66.9110011,68.1389971 67.2049982,67.656002 67.571,67.26 C67.9370018,66.863998 68.3539977,66.5610011 68.822,66.351 C69.2900023,66.140999 69.7759975,66.036 70.28,66.036 C70.8320028,66.036 71.3269978,66.131999 71.765,66.324 C72.2030022,66.516001 72.5689985,66.7919982 72.863,67.152 C73.1570015,67.5120018 73.3819992,67.9439975 73.538,68.448 C73.6940008,68.9520025 73.772,69.5159969 73.772,70.14 C73.772,70.2960008 73.769,70.4489993 73.763,70.599 C73.757,70.7490007 73.7420001,70.8779995 73.718,70.986 L67.814,70.986 C67.8740003,71.9220047 68.1649974,72.6629973 68.687,73.209 C69.2090026,73.7550027 69.8899958,74.028 70.73,74.028 C71.1500021,74.028 71.5369982,73.9650006 71.891,73.839 C72.2450018,73.7129994 72.5839984,73.548001 72.908,73.344 L73.43,74.316 C73.0459981,74.5560012 72.6200023,74.7659991 72.152,74.946 C71.6839977,75.1260009 71.150003,75.216 70.55,75.216 Z M72.476,69.924 C72.476,69.0359956 72.2870019,68.3610023 71.909,67.899 C71.5309981,67.4369977 71.0000034,67.206 70.316,67.206 C70.0039984,67.206 69.7070014,67.2659994 69.425,67.386 C69.1429986,67.5060006 68.8880011,67.6829988 68.66,67.917 C68.4319989,68.1510012 68.2430007,68.4359983 68.093,68.772 C67.9429992,69.1080017 67.8440002,69.4919978 67.796,69.924 L72.476,69.924 Z M75.932,66.252 L79.298,66.252 C79.7780024,66.252 80.215998,66.2939996 80.612,66.378 C81.008002,66.4620004 81.3469986,66.5909991 81.629,66.765 C81.9110014,66.9390009 82.1299992,67.1669986 82.286,67.449 C82.4420008,67.7310014 82.52,68.069998 82.52,68.466 C82.52,68.9580025 82.3910013,69.3599984 82.133,69.672 C81.8749987,69.9840016 81.5180023,70.2059993 81.062,70.338 L81.062,70.392 C81.3140013,70.4520003 81.5509989,70.5359995 81.773,70.644 C81.9950011,70.7520005 82.1899992,70.8899992 82.358,71.058 C82.5260008,71.2260008 82.6579995,71.4299988 82.754,71.67 C82.8500005,71.9100012 82.898,72.1859984 82.898,72.498 C82.898,72.9300022 82.8110009,73.3019984 82.637,73.614 C82.4629991,73.9260016 82.2230015,74.186999 81.917,74.397 C81.6109985,74.6070011 81.2480021,74.7599995 80.828,74.856 C80.4079979,74.9520005 79.9460025,75 79.442,75 L75.932,75 L75.932,66.252 Z M79.046,69.924 C79.7780037,69.924 80.2999984,69.8070012 80.612,69.573 C80.9240016,69.3389988 81.08,69.018002 81.08,68.61 C81.08,68.201998 80.9300015,67.8840011 80.63,67.656 C80.3299985,67.4279989 79.8380034,67.314 79.154,67.314 L77.39,67.314 L77.39,69.924 L79.046,69.924 Z M79.28,73.938 C80.0000036,73.938 80.5369982,73.8060013 80.891,73.542 C81.2450018,73.2779987 81.422,72.9000025 81.422,72.408 C81.422,71.9639978 81.2360019,71.6160013 80.864,71.364 C80.4919981,71.1119987 79.9340037,70.986 79.19,70.986 L77.39,70.986 L77.39,73.938 L79.28,73.938 Z M88.622,75.216 C88.0339971,75.216 87.4850025,75.111001 86.975,74.901 C86.4649974,74.6909989 86.0210019,74.391002 85.643,74.001 C85.2649981,73.6109981 84.9680011,73.1340028 84.752,72.57 C84.5359989,72.0059972 84.428,71.3640036 84.428,70.644 C84.428,69.9239964 84.5389989,69.2790029 84.761,68.709 C84.9830011,68.1389971 85.2769982,67.656002 85.643,67.26 C86.0090018,66.863998 86.4259977,66.5610011 86.894,66.351 C87.3620023,66.140999 87.8479975,66.036 88.352,66.036 C88.9040028,66.036 89.3989978,66.131999 89.837,66.324 C90.2750022,66.516001 90.6409985,66.7919982 90.935,67.152 C91.2290015,67.5120018 91.4539992,67.9439975 91.61,68.448 C91.7660008,68.9520025 91.844,69.5159969 91.844,70.14 C91.844,70.2960008 91.841,70.4489993 91.835,70.599 C91.829,70.7490007 91.8140001,70.8779995 91.79,70.986 L85.886,70.986 C85.9460003,71.9220047 86.2369974,72.6629973 86.759,73.209 C87.2810026,73.7550027 87.9619958,74.028 88.802,74.028 C89.2220021,74.028 89.6089982,73.9650006 89.963,73.839 C90.3170018,73.7129994 90.6559984,73.548001 90.98,73.344 L91.502,74.316 C91.1179981,74.5560012 90.6920023,74.7659991 90.224,74.946 C89.7559977,75.1260009 89.222003,75.216 88.622,75.216 Z M90.548,69.924 C90.548,69.0359956 90.3590019,68.3610023 89.981,67.899 C89.6029981,67.4369977 89.0720034,67.206 88.388,67.206 C88.0759984,67.206 87.7790014,67.2659994 87.497,67.386 C87.2149986,67.5060006 86.9600011,67.6829988 86.732,67.917 C86.5039989,68.1510012 86.3150007,68.4359983 86.165,68.772 C86.0149992,69.1080017 85.9160002,69.4919978 85.868,69.924 L90.548,69.924 Z M97.46,75.216 C96.8839971,75.216 96.3440025,75.114001 95.84,74.91 C95.3359975,74.705999 94.9010018,74.409002 94.535,74.019 C94.1689982,73.6289981 93.881001,73.1490029 93.671,72.579 C93.4609989,72.0089971 93.356,71.3640036 93.356,70.644 C93.356,69.9119963 93.4699989,69.2610029 93.698,68.691 C93.9260011,68.1209971 94.2319981,67.638002 94.616,67.242 C95.0000019,66.845998 95.4469974,66.546001 95.957,66.342 C96.4670025,66.137999 97.0039972,66.036 97.568,66.036 C98.1440029,66.036 98.635998,66.137999 99.044,66.342 C99.452002,66.546001 99.8119984,66.7859986 100.124,67.062 L99.368,68.034 C99.1159987,67.8059989 98.8490014,67.6200007 98.567,67.476 C98.2849986,67.3319993 97.9700017,67.26 97.622,67.26 C97.225998,67.26 96.8600017,67.3409992 96.524,67.503 C96.1879983,67.6650008 95.9000012,67.8959985 95.66,68.196 C95.4199988,68.4960015 95.2310007,68.8529979 95.093,69.267 C94.9549993,69.6810021 94.886,70.1399975 94.886,70.644 C94.886,71.1480025 94.9519993,71.603998 95.084,72.012 C95.2160007,72.420002 95.3989988,72.7709985 95.633,73.065 C95.8670012,73.3590015 96.1519983,73.5869992 96.488,73.749 C96.8240017,73.9110008 97.189998,73.992 97.586,73.992 C97.994002,73.992 98.3689983,73.9050009 98.711,73.731 C99.0530017,73.5569991 99.3619986,73.3500012 99.638,73.11 L100.286,74.1 C99.889998,74.4480017 99.4520024,74.720999 98.972,74.919 C98.4919976,75.117001 97.9880026,75.216 97.46,75.216 Z M104.138,67.458 L101.204,67.458 L101.204,66.252 L108.548,66.252 L108.548,67.458 L105.614,67.458 L105.614,75 L104.138,75 L104.138,67.458 Z M110.492,66.252 L111.932,66.252 L111.932,69.888 C111.932,70.3560023 111.917,70.8689972 111.887,71.427 C111.857,71.9850028 111.824,72.5459972 111.788,73.11 L111.86,73.11 C112.028001,72.8339986 112.222999,72.5220017 112.445,72.174 C112.667001,71.8259983 112.855999,71.5140014 113.012,71.238 L116.324,66.252 L117.71,66.252 L117.71,75 L116.27,75 L116.27,71.364 C116.27,70.8959977 116.285,70.3830028 116.315,69.825 C116.345,69.2669972 116.378,68.7000029 116.414,68.124 L116.342,68.124 C116.173999,68.4000014 115.979001,68.7149982 115.757,69.069 C115.534999,69.4230018 115.346001,69.7319987 115.19,69.996 L111.86,75 L110.492,75 L110.492,66.252 Z" id="Перевести" fill="#353441"></path>
            <rect id="Rectangle-21" fill="#F5F5F5" x="36" y="11" width="85" height="12"></rect>
            <rect id="Rectangle-21-Copy" fill="#F5F5F5" x="36" y="37" width="75" height="12"></rect>
            <rect id="Rectangle-21-Copy-4" fill="#F5F5F5" x="36" y="89" width="117" height="12"></rect>
            <rect id="Rectangle-21-Copy-5" fill="#F5F5F5" x="36" y="115" width="55" height="12"></rect>
        </g>
    </g>
</svg>